<svg xmlns="http://www.w3.org/2000/svg" viewBox="0 0 1500 1500"><defs><style>.cls-1{fill:#f5f5f7;}.cls-2,.cls-23,.cls-25,.cls-27,.cls-3,.cls-4,.cls-6{fill:none;stroke-miterlimit:10;}.cls-2,.cls-3,.cls-4,.cls-6{stroke:#eaeaef;}.cls-2,.cls-3,.cls-6{stroke-linecap:round;}.cls-2{stroke-width:6.31px;}.cls-3{stroke-width:2.37px;}.cls-4{stroke-width:4px;}.cls-5,.cls-7{fill:#eaeaef;}.cls-6{stroke-width:3.94px;}.cls-7,.cls-8,.cls-9{fill-rule:evenodd;}.cls-24,.cls-8{fill:#dfe1e5;}.cls-9{fill:#d4d8dd;}.cls-10{fill:#0c1121;opacity:0.3;}.cls-11{fill:#f4af9a;}.cls-12{fill:#ffbfa6;}.cls-13{fill:#fff;}.cls-14{fill:#f4b19d;}.cls-15{fill:#b1bccd;}.cls-16{fill:#000c36;}.cls-17{fill:#fcdcbb;}.cls-18{fill:#010b26;}.cls-19{fill:#0d1b44;}.cls-20{fill:#1aeffe;}.cls-21{fill:#1c202d;}.cls-22{fill:#efcdaf;}.cls-23{stroke:#e8e7e7;stroke-width:1.42px;}.cls-25,.cls-27{stroke:#b1bccd;}.cls-25{stroke-width:0.71px;}.cls-26{fill:#d5d8db;}.cls-27{stroke-width:0.94px;}.cls-28{fill:#f1efef;}</style></defs><g id="Board"><rect class="cls-1" x="398.68" y="551" width="669.32" height="465.77" rx="18.26"/><line class="cls-2" x1="436.98" y1="591.2" x2="613.14" y2="591.2"/><line class="cls-2" x1="436.98" y1="613.33" x2="675.3" y2="613.33"/><polyline class="cls-3" points="436.98 637.23 436.05 837.43 733.34 837.43"/><polyline class="cls-4" points="436.98 834.44 465.5 805.19 478.06 819.81 494.8 805.19 509.14 819.81 546.8 752.29 561.74 768.68 595.81 709.46 610.15 725.5 649.62 676.29 679.89 728.52 708.78 699.09 718.34 709.46 734.76 683.77"/><circle class="cls-5" cx="439.57" cy="869.34" r="8.36"/><circle class="cls-5" cx="439.57" cy="897.56" r="8.36"/><circle class="cls-5" cx="439.57" cy="926.56" r="8.36"/><line class="cls-6" x1="461.33" y1="869.34" x2="620.32" y2="869.34"/><line class="cls-6" x1="461.33" y1="897.81" x2="574.89" y2="897.81"/><line class="cls-6" x1="461.33" y1="926.56" x2="597.6" y2="926.56"/><circle class="cls-5" cx="439.57" cy="955.71" r="8.36"/><line class="cls-6" x1="461.33" y1="955.71" x2="597.6" y2="955.71"/><path class="cls-7" d="M923.92,720.31v-62a4.82,4.82,0,0,1,4.82-4.82v0a67.18,67.18,0,0,1,66.24,56,4.82,4.82,0,0,1-4,5.55l-61.47,10.39a4.83,4.83,0,0,1-5.56-4A5.11,5.11,0,0,1,923.92,720.31Z"/><path class="cls-8" d="M972,669.18l.16.13A67.06,67.06,0,0,1,995,709.44a4.82,4.82,0,0,1-4,5.55l-61.47,10.39a4.85,4.85,0,0,1-4.07-1.21Z"/><path class="cls-8" d="M909.72,818.55a74.75,74.75,0,0,1-5.9-149.27,5.48,5.48,0,0,1,5.9,5.47Z"/><path class="cls-9" d="M982.44,761.36c.1-.41.19-.81.28-1.22s.13-.57.19-.86.11-.51.16-.76c.09-.46.18-.91.26-1.37a2.33,2.33,0,0,0,0-.28,74.55,74.55,0,0,0,.76-20.88,5.5,5.5,0,0,0-6.45-4.85l-68,12.59,52.89,52.89a74.67,74.67,0,0,0,19.74-34.89Z"/><path class="cls-7" d="M962.62,796.63l-52.9-52.9-52.9,52.89a74.53,74.53,0,0,0,52.9,21.93v0A74.53,74.53,0,0,0,962.62,796.63Z"/><path class="cls-8" d="M909.72,818.53a74.53,74.53,0,0,0,52.9-21.9l-52.9-52.9Z"/><circle class="cls-5" cx="826.8" cy="869.2" r="8.36"/><circle class="cls-5" cx="826.8" cy="897.42" r="8.36"/><circle class="cls-5" cx="826.8" cy="926.42" r="8.36"/><line class="cls-6" x1="848.56" y1="869.2" x2="1007.55" y2="869.2"/><line class="cls-6" x1="848.56" y1="897.67" x2="962.12" y2="897.67"/><line class="cls-6" x1="848.56" y1="926.42" x2="984.83" y2="926.42"/></g><g id="Woman"><ellipse class="cls-10" cx="467.97" cy="1157.53" rx="147.36" ry="30.82"/><path class="cls-11" d="M377.42,1086.81l-1.66,43s1.46,7.17,7.44,9.77,13.94-8.17,13.94-8.17l1.6-42.84Z"/><path class="cls-11" d="M438.31,609.27s1.39,13.14,1.74,17.56,0,14,0,14,6.22,7.91,16.57,9S471,644.09,471,644.09l.79-16.79Z"/><path class="cls-12" d="M438.25,592.84s-4.54-3.49-7.5-2.79-3,7.15-2.27,9.94,5.41,8.2,7.33,9.07l1.92.88a55.13,55.13,0,0,0,4.1,6.63c3.75,4.79,18.93,12.47,26.43,13.17s17.1-16.58,18-20.06,4.36-23.38,1.57-40.65S466,544.25,458.48,543.55,421.65,558.29,438.25,592.84Z"/><path class="cls-13" d="M463.55,614.84s9.08.78,13.66-.79S472.07,620.21,463.55,614.84Z"/><path class="cls-14" d="M591.62,721s.52.65,3.75,1.68,12.29-2.45,12.29-2.45l-5.95,11.51H585.54Z"/><path class="cls-12" d="M577.1,730.59l6.47-2.2s4-7.24,5.3-8.8,7.77-3,9.32-3.88,4-1.16,4.14,0-.78,3-2.46,4.53-6.73,3.37-7,3.75-1.68,7.38-2.58,10.87-8.4,7.24-8.4,7.24Z"/><path class="cls-15" d="M652.29,684l-62.66,45.51a1.74,1.74,0,0,1-2.44-.4h0a1.74,1.74,0,0,1,.43-2.44l63.79-43.92a.76.76,0,0,1,1.06.19h0A.77.77,0,0,1,652.29,684Z"/><path class="cls-12" d="M597.18,720.11s4-.93,5.07-3.49-5.25,2.53-5.07,3.49h0"/><path class="cls-12" d="M581.74,745.66l5.47-3.28s9.85-2.73,11.65-3.56,6.47-5.25,6.92-6.15a23.74,23.74,0,0,1,1.9-3.78,10.83,10.83,0,0,0,1.4-3.65c.26-1.12,1.84-6.82,1.48-8.33s-2.34-5.42-3.57-5.53-2,2.16-2,2.16-2.33.21-2.65,1.09-2.27,2.18-2.27,2.18a6.49,6.49,0,0,0-2.19,2,2.68,2.68,0,0,0-.4,1.69,9,9,0,0,0-1.31,2.31c-.07.47,1.41,2.86,2.36,4.35a1.07,1.07,0,0,1-.58,1.61,44.74,44.74,0,0,0-9.68,4.16,63.42,63.42,0,0,0-8.8,6.81Z"/><path class="cls-16" d="M497.6,642.78s8.72,3.46,11.51,7.07,7.77,45.06,8.57,53.83,3.79,25.51,3.59,26.91,2,.79,3.38,2a7,7,0,0,0,6.38,1.19c2.39-.77,23.51-4.25,26.3-4.31a54,54,0,0,1,8.56,1.13s9.77-3.19,11.16-3.19,4.81,7.57,5.6,10,0,8.37,0,9.16-10.56,3.39-10.56,3.39-1.41,3.39-3.21,4.19-21.71,3.41-31.28,5.38-31.5,2.76-34.66-.4c-5-5-8.57-42.25-8.57-42.25Z"/><path class="cls-11" d="M477,1082l5.57,40.44s2.4,5,6.38,6.18,10.16-3.79,12.15-6.78,1-4.18,1-4.18l-5.1-39.4Z"/><path class="cls-17" d="M489.69,801.3s6.27,69.94,6.87,101.31-1.49,46.63-1.49,57.68,1.11,82.79,1.6,90.26,1.68,27.49,1.68,27.49-6,4.19-10.16,5.08-12.25,0-12.25,0-12.25-73.52-14.05-98,3.59-30.19,0-48.42-19.72-73.22-19.72-73.22l-1.85-62.16Z"/><path class="cls-17" d="M400.63,799.81a329.62,329.62,0,0,0-6.8,35.86c-2.47,19.13-2.47,77.4-4,92.35s-1.19,14.34-2.69,23-9.26,41.54-10.76,64.85,0,72.62,0,72.62a32.3,32.3,0,0,0,10.46,3.29c6.28.9,13.75-2.69,13.75-2.69s9.86-101.61,15.24-118.65,20.92-58.87,29.29-95.93,14-71.12,14-71.12Z"/><path class="cls-16" d="M477.29,634.46l20.31,8.32s2.45,27.51,4.95,36.57,1.25,19.39,0,26.57S493.8,741.3,492.87,751s5.4,31.55,4.73,33.74-3.8,5.94-3.8,5.94l-.31,12.49s-25,2.81-44.7,2.81-51.83-4.5-51.83-4.5V791.6s-3.13-6-3.13-9.7,6.56-23.1,5.94-41.53-4.69-88.66-4.69-88.66l33.43-12.88L458,651.73Z"/><path class="cls-18" d="M418.38,804s.26-9.44,0-11.38-3.74-4.84-4.3-7.62-1.5-25.85-1.65-37.36S405,702,405,702l-6.41,12.51s1.67,18.32,1.26,27.6A226.8,226.8,0,0,1,397,768.43c-1,5.53-4.64,12.31-2.36,17.74L397,791.6v9.87Z"/><path class="cls-19" d="M458.89,647.24s-11.39-11.34-14.07-13a15.07,15.07,0,0,0-4.61-2.09c-2.25-.81-4.11-2.75-5.74-2.42s-3.26,3.24-4.89,3.7-4.41,1.63-5.46,3.14a49.47,49.47,0,0,0-2.72,5.06l5.39-1.45s23.27,10.46,25.48,10.93,7.09,2.21,8.83,1.63S458.89,647.24,458.89,647.24Z"/><path class="cls-19" d="M480.41,633.46s0-3.33-.93-3.7-3,.37-4,0a28.58,28.58,0,0,0-3.82-.8l-.17,3.46s-8.85,12.65-10,13.72-2.87,3.27-2.31,5,1.86,1.63,3.49.93S480.41,633.46,480.41,633.46Z"/><path class="cls-19" d="M445.52,647.3s1.74,11.4,2.09,17.33.24,11.17,0,11.86,1.51,1.17,1.51,1.17v3.49h.82V678a5.16,5.16,0,0,0,1.05-.35c.46-.23-.47-11-.7-15.36a100.94,100.94,0,0,0-2.56-15C447.15,645.44,445.13,644.67,445.52,647.3Z"/><path class="cls-19" d="M469.82,642.45s1.75,11.4,2.1,17.33.23,11.16,0,11.86,1.51,1.16,1.51,1.16v3.49h.81v-3.14a4.54,4.54,0,0,0,1.05-.35c.46-.23-.47-11-.7-15.35a100.94,100.94,0,0,0-2.56-15C471.45,640.59,469.43,639.81,469.82,642.45Z"/><g id="Gesicht"><path class="cls-20" d="M459.14,710.75a17.52,17.52,0,0,1,.9-6,13.06,13.06,0,0,0-3-6.75,17.72,17.72,0,0,0-5.94-4.75c-1.5-.57-2.74-.74-4,.12-.41-1.43-1.71-2.42-3.13-1.35a23.51,23.51,0,0,0-3.33,3.4,26.5,26.5,0,0,0-6.09,14.18,11.47,11.47,0,0,0,2.69,8.58,10,10,0,0,0,7.47,3.09,16.74,16.74,0,0,0,12-5.35,19.28,19.28,0,0,0,2.58-3.84A10.59,10.59,0,0,1,459.14,710.75Zm-4.87,2.62c-2,2.66-7.28,4.85-10.18,4.64a6.29,6.29,0,0,1-4.25-2.75,9.22,9.22,0,0,1-1.24-5.11,16.87,16.87,0,0,1,2.46-8.11,34,34,0,0,1,4-5.47,3,3,0,0,0,1.14,1.81c1.66,1,2.69-.9,2.68-1.31a2.92,2.92,0,0,1,1.28.37,11.51,11.51,0,0,1,4.14,3.46,9.77,9.77,0,0,1,2.1,5.2,9.1,9.1,0,0,1-2.13,7.27Z"/><path class="cls-20" d="M482.9,726.1a.15.15,0,0,1,.22,0,.2.2,0,0,1,0,.21,26.78,26.78,0,0,1-12.82,10.72c-7.88,3.06-15-.88-17.42-2.48a.23.23,0,0,1-.06-.29.16.16,0,0,1,.19-.1c2.44.47,9.13,1.45,15.53-.34s12.37-6.17,14.36-7.77"/><path class="cls-13" d="M484.76,707.49a13.72,13.72,0,0,1-5.12,10,15.94,15.94,0,0,1-9.13,3.57c-3,.1-5.85-.6-7.68-2.23a12.41,12.41,0,0,1-3.69-8.12,17.68,17.68,0,0,1,2.09-8.71,33.1,33.1,0,0,1,4.17-5.68,5.27,5.27,0,0,1,3.65-5.06,6.81,6.81,0,0,1,5.81.44,17.69,17.69,0,0,1,6.13,5,15.26,15.26,0,0,1,3.77,10.79M478,699.87a15.35,15.35,0,0,0-4.67-4.38,3.46,3.46,0,0,0-3.79.32c1.27,0,1.9.9,1.88,2.21s-1.19,2.51-3.38,2a34,34,0,0,0-3.19,4.56,12.3,12.3,0,0,0-1.74,6.09,7.39,7.39,0,0,0,2.15,5.08c1.38,1.64,2.72,2.19,5.14,2.11a11.27,11.27,0,0,0,7-3.3,10.81,10.81,0,0,0,3.58-7.32c.13-2.68-1.44-5.4-2.94-7.32"/></g><path class="cls-16" d="M434.4,623.34s6.28-5.83,6.13-12.11-3.44-7-3.07-11.05,6.05-4.94,5.91-10.46,10.24-8.52,15.76-12.56,3.23-11.42,11.83-13.44a10,10,0,0,1,7.42.9,4.26,4.26,0,0,1,3.39.74c1.49,1.19,4.33,5.38,3.29,11.06s1,7.75,2.39,9.26.62,9.34.62,12.16a47.33,47.33,0,0,1-1.84,11.84c-.82,2.12-7.41,12.79-7.41,12.79a10.38,10.38,0,0,0,2.2,2.81c1.49,1.34,4.18,3.14,6.72,3s-.44-1.5-.74-3.14,2.24,2.71,4.93,3.15,2.39-.46,1.49-2.55-3.88-5.07-1.94-9,3.29-3,4.78-6.13-4-9-3.43-12.86,4.33-5.23,4.93-8.81-4.79-7.47-5.38-10.61,4.78-5.83,4.78-12.4-6.87-11.06-13.6-16.74-16.29-5.69-16.29-5.69-5.23-4.47-11.2-4.47a42.43,42.43,0,0,0-24.81,9,59.94,59.94,0,0,0-17,21.81c-3.74,7.77,2.09,12.09,1.19,16.8s-7.77,7.86-8.07,15,7.47,9.26,9.57,14.34-5.08,9.42-5.08,9.42,8.21,1.19,11.65-1.65-2.09,2.84-2.09,2.84l6.7-3-2.67,3.13S431.75,626.38,434.4,623.34Z"/><path class="cls-16" d="M404.07,648.43a32.68,32.68,0,0,0-14.59,7.33c-8.1,7.06-36.71,98-37.16,101.68s-.24,11.65,10.94,13.68c10,1.83,45.6-79,45.6-79S415,655.92,404.07,648.43Z"/><path class="cls-12" d="M416.61,778.82s18.64,7.35,20.69,7.35,16.25-2,19.15-2.74,8.19-3.24,7.52-4.61-4-1.2-4-1.2-2.94-1.2-4.25-1-16.18-1.53-16.69-2.73,5.81-1.71,8-1.71,3.75-.17,5.29-1.2-2-2.73-4.27-2.91-6.94.18-8.08,0a67.26,67.26,0,0,0-9-1.71,41.91,41.91,0,0,0-9.57.86h-3.59Z"/><path class="cls-16" d="M356.1,744.3s-5.53,14.28-6.24,21.39,17.38,13.14,28.63,15.74,24.86,4,27.41,3.48a4.83,4.83,0,0,0,3.4-3l8.19.56c.68,0,2.66-18.79,2.66-18.79l-9.13-.17s-2.55-6.11-4.34-6.69-14.16-.06-16.15-1.11-16.16-4.31-16.16-4.31Z"/><path class="cls-21" d="M375.76,1126.85s-5.12,24.91-5.91,30.09,5,14.94,15.14,14.94,16.34-8,16.34-12.35-4.12-29.88-4.12-29.88-4.12-5.59-10-6.78-10.43,6-10.43,6Z"/><path class="cls-21" d="M481.27,1119s-1,24.19-1,25.9,13.53,4.81,17.19,5.54,15.35,4.76,21.94,6.22,17.18,1.09,21.39-1.46-2-13-10.61-16.94S504.91,1119,504.91,1119s-6.21-2.38-10.23,1.28S485.41,1127.63,481.27,1119Z"/><path class="cls-22" d="M381.24,1090.49s-2.43-58.47,1.76-82.23,13.89-59,14-74.12-2.09-82.48-.89-95.78,2.88-31.8,2.88-31.8-7,34.23-6.74,51.69-2.09,57.51-2.09,65.43-2.28,24.06-3.92,32-6.65,33.4-8.7,48.37-1.77,55.31-1.63,63.38.47,21.07.47,21.07Z"/><path class="cls-22" d="M480.23,1083.44S471,1014.29,469.34,989s1.12-38.25-2.47-52-18.13-75.11-18.13-75.11l-3.58,12.65S457.61,921,460.7,932.2s1.41,21.91.88,39.24c-.26,8.18.46,21.2,4.6,48.92s9.76,62.76,9.76,62.76Z"/><path class="cls-18" d="M542.09,758.63s-29-.92-34-5.62-8.77-43.22-8.77-43.22l-3.3,24.42s3.8,18.27,4.72,20.59,1,5,5.18,5.54S529.05,762.37,542.09,758.63Z"/></g><g id="Pflanze-2"><path class="cls-23" d="M911.27,1065.59a54.3,54.3,0,0,1-20.27,7.09"/><path class="cls-24" d="M903.06,1098.53s32.88-10.34,46.4-47.25c5.15-14,3-25.1,1.31-30.33a3.6,3.6,0,0,0-4.49-2.31l-12.74,4a1.61,1.61,0,0,1-2-1v-.09l-.41-1.56a2.68,2.68,0,0,1,1.62-3.19l13.4-5.22a2.25,2.25,0,0,0,1.27-2.91l-.07-.18c-3-6.07-11.69-23.09-17.93-30.09-3.67-4.1-6-6.66-7.42-8.22a4.93,4.93,0,0,0-5-1.37c-5.61,1.68-18.14,5.59-26.71,9.59a59.06,59.06,0,0,0-12.93,7.79,3,3,0,0,0-.55,4l10.72,15.18a2.43,2.43,0,0,1,0,2.71l-.33.51a2,2,0,0,1-2.81.62h0a2.16,2.16,0,0,1-.33-.27L872.2,997a2.52,2.52,0,0,0-3.54,0,1.79,1.79,0,0,0-.22.25c-3.79,5-12.57,17.28-14.31,25.14-2.55,11.7-4,26.64.37,48.08C860.39,1099.35,874.55,1107.91,903.06,1098.53Z"/><path class="cls-25" d="M877.83,1101s14.62-64,27-87.35"/><path class="cls-25" d="M882.94,1044.7a30.1,30.1,0,0,0,8.34,5.45"/><path class="cls-25" d="M919.51,1025s-6,3.3-22,6.22"/><path class="cls-5" d="M954.19,1162.59s8-6.06,12-14.1a48.46,48.46,0,0,0,3.89-10.36,2.52,2.52,0,0,0-1.84-3h0l-.3-.06-15.87-1.7a2.12,2.12,0,0,1-1.91-2.12v-1.69a2.56,2.56,0,0,1,2.55-2.56h15.94a2.36,2.36,0,0,0,2.33-2c.41-3.08.92-9.74-.36-20.35-1.3-10.83-4.06-17.75-5.56-20.86a2.28,2.28,0,0,0-2.92-1.1l-16.73,7.08-2.93-3.67,14.71-10.86a2.7,2.7,0,0,0,.61-3.73c-3.84-5.52-14.06-19.9-19.3-24.89-6.57-6.2-16.44-12-16.44-12s-24.35,8.67-35.09,19.29-13.64,13.79-20.83,36.18c-9.14,28.48,4.06,71.52,4.06,71.52Z"/><path class="cls-25" d="M937.41,1140.41s-7.44,5.51-24.55,6.61"/><path class="cls-25" d="M892.45,1104.55s14,3.31,21.25,3.36"/><path class="cls-25" d="M912.92,1162.59s-.92-62.71,4.24-97.4"/><path class="cls-1" d="M877.47,1161.29s8.44-3.84,14.62-17.91c3.53-8.08,6.68-21.2,4.85-22.66-1.54-1.23-28.72-.13-37.34.24a2.49,2.49,0,0,1-2.61-2.37h0v-2a1.92,1.92,0,0,1,1.74-1.9l35.29-3.23a2.85,2.85,0,0,0,2.56-3.08h0v-.1c-1.23-9.19-5.46-38-12.16-52.26-5-10.63-7.72-16.1-9.08-18.7a2.63,2.63,0,0,0-3.34-1.21L846.59,1047a3.22,3.22,0,0,1-3.89-1.12l-1.06-1.47a3,3,0,0,1,.74-4.15h0l.13-.08,23.8-14.65a1.78,1.78,0,0,0,.59-2.45h0l-.13-.18a162.66,162.66,0,0,0-26.95-26.41c-9.59-7.23-23.59-13.94-30.92-17.24a9.59,9.59,0,0,0-9.31.82c-10.27,7-35.4,24.73-42.38,35.4-4.52,7-7.19,11.23-8.73,13.7a3.11,3.11,0,0,0,1,4.26l.46.22,27.42,11.2a2.6,2.6,0,0,1,1.53,3.07l-.71,2.7a3.2,3.2,0,0,1-3.91,2.26h0l-27.71-8a3.34,3.34,0,0,0-4.11,2.29h0c-2.12,7.66-7.2,27.17-7.49,38.46-.27,10.73-.15,23.89-.06,29.78a3.14,3.14,0,0,0,3.09,3.08l37.68.34a2.75,2.75,0,0,1,2.69,2.75h0v1.51a3.24,3.24,0,0,1-2.83,3.11L739,1130.43a1.39,1.39,0,0,0-1.22,1.52h0a1.56,1.56,0,0,0,.1.37c2.12,5,8.6,20,12.52,26C755,1165.7,877.47,1161.29,877.47,1161.29Z"/><path class="cls-25" d="M820.45,1162.59a870.06,870.06,0,0,0-4.34-116.06"/><path class="cls-25" d="M786.46,1135.34s16.85,6.58,34.37,4.75"/><path class="cls-25" d="M847.86,1077.58s-10.94,6.22-28.48,8.41"/></g><g id="Pflanze-1"><path class="cls-26" d="M1086,997.42s17.56-8.84,31.33-9.79a209.31,209.31,0,0,1,25.42-.19s-16.61,22.62-33.41,33.52-38.15,14.4-38.15,14.4Z"/><path class="cls-26" d="M969.76,897.94s3.63-42.58,7.36-72.45S986,779.06,986,779.06s35.1,32.12,46.88,49.5,34.69,72.11,34.54,114.1S1002.46,1024.52,969.76,897.94Z"/><path class="cls-24" d="M984.78,1018.7S956.35,985.84,939.66,946s-20.81-96.48-20.81-96.48A446.72,446.72,0,0,1,979,889.17c31.06,24.36,52.16,73,58.63,121.58S984.78,1018.7,984.78,1018.7Z"/><line class="cls-27" x1="985.79" y1="957.29" x2="918.85" y2="849.47"/><path class="cls-24" d="M1096.62,903.36s18.78-11.15,27.56-15.58,16.49-8,16.49-8-7.84,49.94-23.79,80-46.42,67.73-46.42,67.73l-28.58,16.44Z"/><line class="cls-27" x1="1073.44" y1="1029.52" x2="1142.69" y2="987.44"/><polyline class="cls-27" points="1009 878.26 994.9 817.38 986.04 779.09"/><line class="cls-27" x1="1097.31" y1="951.04" x2="1139.06" y2="881.09"/><path class="cls-27" d="M977.91,944.47s9.89-10.16,12.17-17.73,6.59-18.08,6.59-18.08"/><path class="cls-5" d="M985.3,1027.24a23.42,23.42,0,0,1-3.71-7.89c-2.22-8.4-6-28.65-3-62.36,4-46,56.66-152.72,69.24-169.61.17-.23,7.14-11.27,7.28-11.53,5.57-10,23.09-31.56,31.28-30.34,9.54,1.41,15.25,32.61,17.53,43.67,4.26,20.65,3.14,46.76,4.45,69.06,3.1,52.58-7.29,126.15-27.56,164.5C1061.12,1059.92,1010.81,1062.09,985.3,1027.24Z"/><path class="cls-27" d="M1018.09,1050.12s40-143.11,49.8-197.23,18.46-107.38,18.46-107.38"/><path class="cls-27" d="M1023.71,834.44s8.51,13.86,26,27.72a111.1,111.1,0,0,0,14.65,9.44"/><path class="cls-27" d="M1072,828.91a55.55,55.55,0,0,0,20-6.14c5.24-2.76,14.73-11.56,14.73-11.56"/><path class="cls-27" d="M1057.89,895.75a254.46,254.46,0,0,0,25.5,3.49c10.67.67,24.31-1.27,24.31-1.27"/><line class="cls-27" x1="1043.89" y1="952.83" x2="991.4" y2="910.05"/><line class="cls-27" x1="1028.46" y1="1009.76" x2="977.54" y2="965.92"/><path class="cls-27" d="M1036.21,983.25a145.89,145.89,0,0,0,31.11,1.41c17.68-1,28.74-6.17,28.74-6.17"/><path class="cls-27" d="M941.9,886.87s-3.5.83-8.76,2a83.62,83.62,0,0,1-8.45,1.54"/><path class="cls-27" d="M951.87,903.08a58.38,58.38,0,0,0,9-11,42.57,42.57,0,0,0,4.78-12.66"/><path class="cls-27" d="M964.77,923.76s-9.84,7.48-17.64,9.57a76.32,76.32,0,0,1-11.48,2.42"/><line class="cls-27" x1="979.11" y1="813.75" x2="994.45" y2="816.38"/><path class="cls-27" d="M999.49,837.44s11.78-5.05,17.32-8.88a76,76,0,0,0,9.35-7.52"/><path class="cls-27" d="M1005.44,863.71s-12,4.57-18.64,5.3a70.85,70.85,0,0,1-13.66,0"/><polyline class="cls-27" points="1120.03 890.02 1121.93 908.54 1121.43 910.93"/><line class="cls-27" x1="1107.72" y1="933.86" x2="1124.35" y2="940.29"/><line class="cls-27" x1="1097.99" y1="969.67" x2="1109.81" y2="970.94"/><line class="cls-27" x1="1118.94" y1="988.05" x2="1117.16" y2="1002.26"/><line class="cls-27" x1="1104.51" y1="1010.9" x2="1114.68" y2="1016.16"/><line class="cls-27" x1="1090.2" y1="1019.12" x2="1093.93" y2="995.84"/><line class="cls-27" x1="1080.48" y1="1025.39" x2="1089.02" y2="1029.98"/><polygon class="cls-28" points="1106.01 1161.23 978.4 1161.23 968.93 1060.43 1115.47 1060.43 1106.01 1161.23"/><rect class="cls-24" x="961.95" y="1029.64" width="159.39" height="34.16"/></g><g id="Idea"><path class="cls-24" d="M920.08,602.94H899.35c-4.84,0-10.37-4.15-10.37-12.44V576c0-6.91-3.46-13.13-9-18-12.44-9.68-18.66-23.5-18.66-38.71A49.18,49.18,0,0,1,909,471.61a48.57,48.57,0,0,1,34.57,13.82A49.24,49.24,0,0,1,958.1,520c0,14.52-6.22,28.34-18,37.33a25.24,25.24,0,0,0-9.68,19.35v15.9a10.63,10.63,0,0,1-10.37,10.37ZM909.72,478.52c-22.12,0-40.79,18.66-41.48,40.78,0,13.14,5.53,25.58,15.9,33.18,7.6,6.22,11.75,14.52,11.75,23.5V590.5c0,1.38,0,5.53,3.46,5.53h20.73a3.26,3.26,0,0,0,3.46-3.46v-15.9c0-9,4.84-18.66,12.44-24.88A40.29,40.29,0,0,0,951.19,520a41.32,41.32,0,0,0-12.44-29.72,40.77,40.77,0,0,0-29-11.75Z"/><path class="cls-24" d="M927,582.2H892.43a3.46,3.46,0,0,1,0-6.91H927a3.46,3.46,0,0,1,0,6.91Z"/><path class="cls-24" d="M909.72,457.78a3.26,3.26,0,0,1-3.46-3.45V440.5a3.46,3.46,0,1,1,6.91,0v13.83A3.26,3.26,0,0,1,909.72,457.78Z"/><path class="cls-24" d="M956,477.14a4.13,4.13,0,0,1-2.77-.7,3.34,3.34,0,0,1,0-4.83l9.68-9.68a3.42,3.42,0,0,1,4.84,4.84l-9.68,9.67a6.88,6.88,0,0,1-2.07.7Z"/><path class="cls-24" d="M989.21,523.45H975.38a3.46,3.46,0,0,1,0-6.91h13.83a3.46,3.46,0,0,1,0,6.91Z"/><path class="cls-24" d="M965.71,579.44a4.16,4.16,0,0,1-2.77-.69l-9.68-9.68a3.42,3.42,0,0,1,4.84-4.84l9.68,9.68a3.35,3.35,0,0,1,0,4.84c0,.69-.69.69-2.07.69Z"/><path class="cls-24" d="M853.72,579.44a4.15,4.15,0,0,1-2.76-.69,3.35,3.35,0,0,1,0-4.84l9.68-9.68a3.42,3.42,0,0,1,4.84,4.84l-9.68,9.68A2.54,2.54,0,0,1,853.72,579.44Z"/><path class="cls-24" d="M844.05,523.45H830.22a3.46,3.46,0,0,1,0-6.91h13.83a3.46,3.46,0,0,1,0,6.91Z"/><path class="cls-24" d="M863.4,477.14a4.1,4.1,0,0,1-2.76-.7L851,466.08a3.42,3.42,0,1,1,4.84-4.84l9.68,9.67a3.35,3.35,0,0,1,0,4.84c-.7.69-1.39,1.39-2.08,1.39Z"/><path class="cls-24" d="M937.36,523.45a3.26,3.26,0,0,1-3.45-3.46,24.49,24.49,0,0,0-24.19-24.19,3.46,3.46,0,1,1,0-6.91,31,31,0,0,1,31.1,31.1A3.26,3.26,0,0,1,937.36,523.45Z"/></g></svg>