<svg width="1293" height="874" viewBox="0 0 1293 874" fill="none" xmlns="http://www.w3.org/2000/svg">
<path d="M1120.78 490.606C1096.2 563.357 1071.22 570.675 1061.79 565.24C1014.5 558.821 1025.53 500.855 1036.95 472.674C1071.4 392.865 1138.4 330.291 1167.6 308.98L1154.48 397.033L1128.76 403.933L1149.46 405.73L1120.78 490.606Z" fill="url(#paint0_linear)"/>
<path opacity="0.7" fill-rule="evenodd" clip-rule="evenodd" d="M1150.31 337.134C1150.83 336.307 1151.93 336.062 1152.76 336.587C1153.58 337.112 1153.83 338.209 1153.3 339.037C1145.21 351.794 1134.81 368.922 1123.66 388.381L1123.67 388.379L1123.71 388.37L1123.74 388.361L1123.78 388.352L1123.82 388.343L1123.86 388.333L1123.9 388.324L1123.94 388.315L1123.98 388.306L1124.02 388.297L1124.06 388.288L1124.1 388.278L1124.14 388.269L1124.18 388.26L1124.22 388.251L1124.26 388.241L1124.3 388.232L1124.34 388.223L1124.38 388.214L1124.42 388.204L1124.46 388.195L1124.5 388.186L1124.54 388.176L1124.58 388.167L1124.62 388.158L1124.66 388.148L1124.7 388.139L1124.74 388.129L1124.78 388.12L1124.82 388.111L1124.86 388.101L1124.9 388.092L1124.94 388.082L1124.98 388.073L1125.02 388.063L1125.06 388.054L1125.1 388.044L1125.14 388.035L1125.18 388.025L1125.23 388.016L1125.27 388.006L1125.31 387.997L1125.35 387.987L1125.39 387.978L1125.43 387.968L1125.47 387.958L1125.51 387.949L1125.55 387.939L1125.59 387.93L1125.64 387.92L1125.68 387.91L1125.72 387.901L1125.76 387.891L1125.8 387.882L1125.84 387.872L1125.88 387.862L1125.93 387.853L1125.97 387.843L1126.01 387.833L1126.05 387.824L1126.09 387.814L1126.13 387.804L1126.17 387.795L1126.22 387.785L1126.26 387.775L1126.3 387.766L1126.34 387.756L1126.38 387.746L1126.42 387.736L1126.47 387.727L1126.51 387.717L1126.55 387.707L1126.59 387.697L1126.63 387.688L1126.67 387.678L1126.72 387.668L1126.76 387.659L1126.8 387.649L1126.84 387.639L1126.88 387.629L1126.93 387.619L1126.97 387.61L1127.01 387.6L1127.05 387.59L1127.09 387.58L1127.14 387.571L1127.18 387.561L1127.22 387.551L1127.26 387.541L1127.3 387.532L1127.35 387.522L1127.39 387.512L1127.43 387.502L1127.47 387.492L1127.51 387.483L1127.56 387.473L1127.6 387.463L1127.64 387.453L1127.68 387.443L1127.72 387.434L1127.77 387.424L1127.81 387.414L1127.85 387.404L1127.89 387.395L1127.93 387.385L1127.98 387.375L1128.02 387.365L1128.06 387.355L1128.1 387.346L1128.14 387.336L1128.19 387.326L1128.23 387.316L1128.27 387.307L1128.31 387.297L1128.35 387.287L1128.39 387.277L1128.44 387.267L1128.48 387.258L1128.52 387.248L1128.56 387.238L1128.6 387.228L1128.65 387.219L1128.69 387.209L1128.73 387.199L1128.77 387.189L1128.81 387.18L1128.86 387.17L1128.9 387.16L1128.94 387.151L1128.98 387.141L1129.02 387.131L1129.06 387.121L1129.11 387.112L1129.15 387.102L1129.19 387.092L1129.23 387.083L1129.27 387.073L1129.31 387.063L1129.35 387.054L1129.4 387.044L1129.44 387.034L1129.48 387.025L1129.52 387.015L1129.56 387.005L1129.6 386.996L1129.64 386.986L1129.69 386.977L1129.73 386.967L1129.77 386.957L1129.81 386.948L1129.85 386.938L1129.89 386.929L1129.93 386.919L1129.97 386.91L1130.01 386.9L1130.05 386.89L1130.1 386.881L1130.14 386.871L1130.18 386.862L1130.22 386.852L1130.26 386.843L1130.3 386.833L1130.34 386.824L1130.38 386.814L1130.42 386.805L1130.46 386.796L1130.5 386.786L1130.54 386.777L1130.58 386.767L1130.62 386.758L1130.66 386.749L1130.7 386.739L1130.74 386.73L1130.78 386.72L1130.82 386.711L1130.86 386.702L1130.9 386.692L1130.94 386.683L1130.98 386.674L1131.02 386.665L1131.06 386.655L1131.1 386.646L1131.14 386.637L1131.18 386.628L1131.22 386.618L1131.26 386.609L1131.3 386.6L1131.34 386.591L1131.38 386.582L1131.42 386.572L1131.46 386.563L1131.5 386.554L1131.54 386.545L1131.58 386.536L1131.62 386.527L1131.65 386.518L1131.69 386.509L1131.73 386.5L1131.77 386.491L1131.81 386.482L1131.85 386.473L1131.89 386.464L1131.92 386.455L1131.96 386.446L1132 386.437L1132.04 386.428L1132.08 386.419L1132.12 386.41L1132.15 386.401L1132.19 386.393L1132.23 386.384L1132.27 386.375L1132.31 386.366L1132.34 386.357L1132.38 386.349L1132.42 386.34L1132.46 386.331L1132.49 386.322L1132.53 386.314L1132.57 386.305L1132.6 386.296L1132.64 386.288L1132.68 386.279L1132.72 386.271L1132.75 386.262L1132.79 386.253L1132.83 386.245L1132.86 386.236L1132.9 386.228L1132.93 386.219L1132.97 386.211L1133.01 386.203L1133.04 386.194L1133.08 386.186L1133.12 386.177L1133.15 386.169L1133.19 386.161L1133.22 386.152L1133.26 386.144L1133.29 386.136L1133.33 386.128L1133.36 386.119L1133.4 386.111L1133.43 386.103L1133.47 386.095L1133.5 386.087L1133.54 386.079L1133.57 386.071L1133.61 386.062L1133.64 386.054L1133.68 386.046L1133.71 386.038L1133.75 386.03L1133.78 386.023L1133.81 386.015L1133.85 386.007L1133.88 385.999L1133.92 385.991L1133.95 385.983L1133.98 385.975L1134.02 385.968L1134.05 385.96L1134.08 385.952L1134.12 385.944L1134.15 385.937L1134.18 385.929L1134.21 385.921L1134.25 385.914L1134.28 385.906L1134.31 385.899L1134.34 385.891L1134.38 385.884L1134.41 385.876L1134.44 385.869L1134.47 385.861L1134.5 385.854L1134.53 385.847L1134.57 385.839L1134.6 385.832L1134.63 385.825L1134.66 385.817L1134.69 385.81L1134.72 385.803L1134.75 385.796L1134.78 385.789L1134.81 385.782L1134.84 385.775L1134.87 385.768L1134.9 385.761L1134.93 385.754L1134.96 385.747L1134.99 385.74L1135.02 385.733L1135.05 385.726L1135.08 385.719L1135.11 385.712L1135.14 385.705L1135.17 385.699L1135.2 385.692L1135.23 385.685L1135.26 385.679L1135.28 385.672L1135.31 385.665L1135.34 385.659L1135.37 385.652L1135.4 385.646L1135.43 385.639L1135.45 385.633L1135.48 385.626L1135.51 385.62L1135.53 385.614L1135.56 385.607L1135.59 385.601L1135.62 385.595L1135.64 385.589L1135.67 385.582L1135.7 385.576L1135.72 385.57L1135.75 385.564L1135.77 385.558L1135.8 385.552L1135.82 385.546L1135.85 385.54L1135.88 385.534L1135.9 385.528L1135.93 385.523L1135.95 385.517L1135.98 385.511L1136 385.505L1136.02 385.5L1136.05 385.494L1136.07 385.488L1136.1 385.483L1136.12 385.477L1136.14 385.472L1136.17 385.466L1136.19 385.461L1136.21 385.455L1136.24 385.45L1136.26 385.445L1136.28 385.439L1136.31 385.434L1136.33 385.429L1136.35 385.424L1136.37 385.418L1136.4 385.413L1136.42 385.408L1136.44 385.403L1136.46 385.398L1136.48 385.393L1136.5 385.388L1136.52 385.383L1136.54 385.379L1136.56 385.374L1136.59 385.369L1136.61 385.364L1136.63 385.36L1136.65 385.355L1136.67 385.35L1136.68 385.346L1136.7 385.341L1136.72 385.337L1136.74 385.332L1136.76 385.328L1136.78 385.324L1136.8 385.319L1136.82 385.315L1136.84 385.311L1136.85 385.306L1136.87 385.302L1136.89 385.298L1136.91 385.294L1136.92 385.29L1136.94 385.286L1136.96 385.282L1136.97 385.278L1136.99 385.274L1137.01 385.271L1137.02 385.267L1137.04 385.263L1137.06 385.259L1137.07 385.256L1137.09 385.252L1137.1 385.248L1137.12 385.245L1137.13 385.241L1137.15 385.238L1137.16 385.235L1137.18 385.231L1137.19 385.228L1137.2 385.225L1137.22 385.222L1137.23 385.218L1137.24 385.215L1137.26 385.212L1137.27 385.209L1137.28 385.206L1137.3 385.203L1137.31 385.2L1137.32 385.198L1137.33 385.195L1137.34 385.192L1137.36 385.189L1137.37 385.187L1137.38 385.184L1137.39 385.181L1137.4 385.179L1137.41 385.176L1137.42 385.174L1137.43 385.172L1137.44 385.169L1137.45 385.167L1137.46 385.165L1137.47 385.163L1137.48 385.16L1137.49 385.158L1137.5 385.156L1137.51 385.154L1137.51 385.152L1137.52 385.151C1138.48 384.928 1139.43 385.522 1139.65 386.476C1139.88 387.431 1139.28 388.385 1138.33 388.608L1138.32 388.609L1138.31 388.611L1138.3 388.613L1138.29 388.615L1138.29 388.618L1138.28 388.62L1138.27 388.622L1138.26 388.624L1138.25 388.626L1138.24 388.629L1138.23 388.631L1138.22 388.634L1138.21 388.636L1138.2 388.638L1138.18 388.641L1138.17 388.644L1138.16 388.646L1138.15 388.649L1138.14 388.652L1138.13 388.655L1138.11 388.657L1138.1 388.66L1138.09 388.663L1138.08 388.666L1138.06 388.669L1138.05 388.672L1138.04 388.675L1138.02 388.679L1138.01 388.682L1138 388.685L1137.98 388.688L1137.97 388.692L1137.95 388.695L1137.94 388.699L1137.92 388.702L1137.91 388.706L1137.89 388.709L1137.88 388.713L1137.86 388.716L1137.85 388.72L1137.83 388.724L1137.81 388.728L1137.8 388.731L1137.78 388.735L1137.76 388.739L1137.75 388.743L1137.73 388.747L1137.71 388.751L1137.69 388.755L1137.68 388.759L1137.66 388.764L1137.64 388.768L1137.62 388.772L1137.6 388.776L1137.59 388.781L1137.57 388.785L1137.55 388.789L1137.53 388.794L1137.51 388.798L1137.49 388.803L1137.47 388.807L1137.45 388.812L1137.43 388.817L1137.41 388.821L1137.39 388.826L1137.37 388.831L1137.35 388.836L1137.33 388.84L1137.31 388.845L1137.29 388.85L1137.27 388.855L1137.24 388.86L1137.22 388.865L1137.2 388.87L1137.18 388.875L1137.16 388.881L1137.13 388.886L1137.11 388.891L1137.09 388.896L1137.07 388.902L1137.04 388.907L1137.02 388.912L1137 388.918L1136.97 388.923L1136.95 388.929L1136.93 388.934L1136.9 388.94L1136.88 388.945L1136.85 388.951L1136.83 388.957L1136.81 388.962L1136.78 388.968L1136.76 388.974L1136.73 388.98L1136.71 388.985L1136.68 388.991L1136.66 388.997L1136.63 389.003L1136.6 389.009L1136.58 389.015L1136.55 389.021L1136.53 389.027L1136.5 389.033L1136.47 389.04L1136.45 389.046L1136.42 389.052L1136.39 389.058L1136.37 389.064L1136.34 389.071L1136.31 389.077L1136.29 389.084L1136.26 389.09L1136.23 389.096L1136.2 389.103L1136.17 389.109L1136.15 389.116L1136.12 389.122L1136.09 389.129L1136.06 389.136L1136.03 389.142L1136 389.149L1135.98 389.156L1135.95 389.162L1135.92 389.169L1135.89 389.176L1135.86 389.183L1135.83 389.19L1135.8 389.197L1135.77 389.204L1135.74 389.211L1135.71 389.218L1135.68 389.225L1135.65 389.232L1135.62 389.239L1135.59 389.246L1135.56 389.253L1135.53 389.26L1135.5 389.267L1135.47 389.275L1135.43 389.282L1135.4 389.289L1135.37 389.296L1135.34 389.304L1135.31 389.311L1135.28 389.318L1135.25 389.326L1135.21 389.333L1135.18 389.341L1135.15 389.348L1135.12 389.356L1135.08 389.363L1135.05 389.371L1135.02 389.379L1134.99 389.386L1134.95 389.394L1134.92 389.401L1134.89 389.409L1134.85 389.417L1134.82 389.425L1134.79 389.432L1134.75 389.44L1134.72 389.448L1134.69 389.456L1134.65 389.464L1134.62 389.472L1134.59 389.48L1134.55 389.488L1134.52 389.496L1134.48 389.504L1134.45 389.512L1134.41 389.52L1134.38 389.528L1134.34 389.536L1134.31 389.544L1134.28 389.552L1134.24 389.56L1134.2 389.568L1134.17 389.576L1134.13 389.585L1134.1 389.593L1134.06 389.601L1134.03 389.609L1133.99 389.618L1133.96 389.626L1133.92 389.634L1133.88 389.643L1133.85 389.651L1133.81 389.66L1133.78 389.668L1133.74 389.677L1133.7 389.685L1133.67 389.694L1133.63 389.702L1133.59 389.711L1133.56 389.719L1133.52 389.728L1133.48 389.736L1133.45 389.745L1133.41 389.753L1133.37 389.762L1133.34 389.771L1133.3 389.779L1133.26 389.788L1133.22 389.797L1133.19 389.806L1133.15 389.814L1133.11 389.823L1133.07 389.832L1133.04 389.841L1133 389.85L1132.96 389.858L1132.92 389.867L1132.88 389.876L1132.85 389.885L1132.81 389.894L1132.77 389.903L1132.73 389.912L1132.69 389.921L1132.65 389.93L1132.61 389.939L1132.58 389.948L1132.54 389.957L1132.5 389.966L1132.46 389.975L1132.42 389.984L1132.38 389.993L1132.34 390.002L1132.3 390.011L1132.26 390.02L1132.23 390.03L1132.19 390.039L1132.15 390.048L1132.11 390.057L1132.07 390.066L1132.03 390.075L1131.99 390.085L1131.95 390.094L1131.91 390.103L1131.87 390.112L1131.83 390.122L1131.79 390.131L1131.75 390.14L1131.71 390.15L1131.67 390.159L1131.63 390.168L1131.59 390.178L1131.55 390.187L1131.51 390.196L1131.47 390.206L1131.43 390.215L1131.39 390.224L1131.35 390.234L1131.31 390.243L1131.27 390.253L1131.23 390.262L1131.19 390.272L1131.15 390.281L1131.11 390.291L1131.06 390.3L1131.02 390.309L1130.98 390.319L1130.94 390.328L1130.9 390.338L1130.86 390.348L1130.82 390.357L1130.78 390.367L1130.74 390.376L1130.7 390.386L1130.66 390.395L1130.61 390.405L1130.57 390.414L1130.53 390.424L1130.49 390.434L1130.45 390.443L1130.41 390.453L1130.37 390.463L1130.33 390.472L1130.28 390.482L1130.24 390.491L1130.2 390.501L1130.16 390.511L1130.12 390.52L1130.08 390.53L1130.04 390.54L1129.99 390.549L1129.95 390.559L1129.91 390.569L1129.87 390.579L1129.83 390.588L1129.79 390.598L1129.74 390.608L1129.7 390.617L1129.66 390.627L1129.62 390.637L1129.58 390.647L1129.54 390.656L1129.49 390.666L1129.45 390.676L1129.41 390.686L1129.37 390.695L1129.33 390.705L1129.28 390.715L1129.24 390.725L1129.2 390.734L1129.16 390.744L1129.12 390.754L1129.07 390.764L1129.03 390.773L1128.99 390.783L1128.95 390.793L1128.91 390.803L1128.86 390.812L1128.82 390.822L1128.78 390.832L1128.74 390.842L1128.7 390.852L1128.65 390.861L1128.61 390.871L1128.57 390.881L1128.53 390.891L1128.49 390.901L1128.44 390.91L1128.4 390.92L1128.36 390.93L1128.32 390.94L1128.28 390.949L1128.23 390.959L1128.19 390.969L1128.15 390.979L1128.11 390.989L1128.07 390.998L1128.02 391.008L1127.98 391.018L1127.94 391.028L1127.9 391.037L1127.86 391.047L1127.82 391.057L1127.77 391.067L1127.73 391.077L1127.69 391.086L1127.65 391.096L1127.61 391.106L1127.56 391.116L1127.52 391.125L1127.48 391.135L1127.44 391.145L1127.4 391.155L1127.35 391.164L1127.31 391.174L1127.27 391.184L1127.23 391.193L1127.19 391.203L1127.15 391.213L1127.1 391.223L1127.06 391.232L1127.02 391.242L1126.98 391.252L1126.94 391.261L1126.9 391.271L1126.85 391.281L1126.81 391.29L1126.77 391.3L1126.73 391.31L1126.69 391.319L1126.65 391.329L1126.61 391.339L1126.57 391.348L1126.52 391.358L1126.48 391.368L1126.44 391.377L1126.4 391.387L1126.36 391.396L1126.32 391.406L1126.28 391.416L1126.24 391.425L1126.19 391.435L1126.15 391.444L1126.11 391.454L1126.07 391.463L1126.03 391.473L1125.99 391.482L1125.95 391.492L1125.91 391.501L1125.87 391.511L1125.83 391.52L1125.79 391.53L1125.75 391.539L1125.7 391.549L1125.66 391.558L1125.62 391.568L1125.58 391.577L1125.54 391.586L1125.5 391.596L1125.46 391.605L1125.42 391.615L1125.38 391.624L1125.34 391.633L1125.3 391.643L1125.26 391.652L1125.22 391.661L1125.18 391.671L1125.14 391.68L1125.1 391.689L1125.06 391.698L1125.02 391.708L1124.98 391.717L1124.94 391.726L1124.9 391.735L1124.86 391.745L1124.82 391.754L1124.79 391.763L1124.75 391.772L1124.71 391.781L1124.67 391.79L1124.63 391.8L1124.59 391.809L1124.55 391.818L1124.51 391.827L1124.47 391.836L1124.43 391.845L1124.39 391.854L1124.36 391.863L1124.32 391.872L1124.28 391.881L1124.24 391.89L1124.2 391.899L1124.16 391.908L1124.12 391.917L1124.09 391.926L1124.05 391.935L1124.01 391.944L1123.97 391.952L1123.93 391.961L1123.9 391.97L1123.86 391.979L1123.82 391.988L1123.78 391.996L1123.75 392.005L1123.71 392.014L1123.67 392.023L1123.63 392.031L1123.6 392.04L1123.56 392.049L1123.52 392.057L1123.48 392.066L1123.45 392.075L1123.41 392.083L1123.37 392.092L1123.34 392.1L1123.3 392.109L1123.26 392.117L1123.23 392.126L1123.19 392.134L1123.16 392.143L1123.12 392.151L1123.08 392.16L1123.05 392.168L1123.01 392.176L1122.98 392.185L1122.94 392.193L1122.9 392.201L1122.87 392.21L1122.83 392.218L1122.8 392.226L1122.76 392.234L1122.73 392.243L1122.69 392.251L1122.66 392.259L1122.62 392.267L1122.59 392.275L1122.55 392.283L1122.52 392.291L1122.48 392.299L1122.45 392.307L1122.41 392.315L1122.38 392.323L1122.35 392.331L1122.31 392.339L1122.28 392.347L1122.24 392.355L1122.21 392.363L1122.18 392.371L1122.14 392.378L1122.11 392.386L1122.08 392.394L1122.04 392.402L1122.01 392.409L1121.98 392.417L1121.95 392.425L1121.91 392.432L1121.88 392.44L1121.85 392.447L1121.82 392.455L1121.78 392.462L1121.75 392.47L1121.72 392.477L1121.69 392.485L1121.65 392.492L1121.62 392.5L1121.59 392.507L1121.56 392.514L1121.53 392.522L1121.5 392.529L1121.47 392.536L1121.44 392.543L1121.4 392.551L1121.37 392.558L1121.34 392.565L1121.31 392.572L1121.28 392.579L1121.26 392.585C1112.7 407.621 1103.77 423.918 1095.15 440.582L1118.51 435.139C1119.47 434.917 1120.42 435.51 1120.64 436.465C1120.86 437.42 1120.27 438.374 1119.32 438.596L1093.02 444.724C1092.67 445.392 1092.33 446.061 1091.99 446.73C1080.49 469.281 1069.71 492.241 1061.29 513.45L1100.35 497.709C1101.25 497.342 1102.29 497.782 1102.65 498.691C1103.02 499.6 1102.58 500.635 1101.67 501.001L1059.51 517.994C1052.97 534.971 1048.04 550.695 1045.61 564.016C1045.43 564.98 1044.5 565.619 1043.54 565.442C1042.58 565.266 1041.94 564.341 1042.11 563.377C1044.6 549.773 1049.62 533.779 1056.25 516.577L1044.58 481.692C1044.27 480.763 1044.77 479.757 1045.7 479.446C1046.63 479.135 1047.64 479.637 1047.95 480.566L1058.27 511.428C1066.73 490.229 1077.45 467.417 1088.83 445.117C1089.13 444.521 1089.44 443.926 1089.74 443.331L1084.58 421.176C1084.36 420.222 1084.95 419.268 1085.9 419.045C1086.86 418.823 1087.81 419.416 1088.04 420.371L1092.25 438.46C1101.01 421.545 1110.08 405.018 1118.75 389.81L1115.87 377.439C1115.65 376.484 1116.24 375.53 1117.19 375.308C1118.15 375.085 1119.1 375.679 1119.33 376.634L1121.34 385.284C1132.23 366.325 1142.37 349.641 1150.31 337.134Z" fill="url(#paint1_linear)"/>
<path d="M1167.87 427.932C1140.92 455.926 1072.68 532.451 1028.85 610.234" stroke="#4F4BAA" stroke-width="2.4882" stroke-linecap="round"/>
<path d="M1208.89 409.229C1196.59 422.046 1178.24 425.785 1164.91 430.06C1167.34 417.946 1168.54 402.53 1174.96 388.994C1185.78 366.179 1200.86 362.946 1212.29 371.464C1227.61 382.871 1215.93 401.895 1208.89 409.229Z" fill="url(#paint2_linear)"/>
<path d="M1147.44 432.293C1146.86 445.355 1138.52 456.336 1133.23 465.174C1128.69 457.294 1121.87 448.183 1118.84 437.578C1113.75 419.705 1120.52 410.593 1130.98 409.752C1144.99 408.624 1147.77 424.82 1147.44 432.293Z" fill="url(#paint3_linear)"/>
<path d="M1166.17 476.968C1153.1 476.651 1141.95 468.534 1133.01 463.414C1140.8 458.718 1149.77 451.717 1160.31 448.483C1178.08 443.034 1187.33 449.623 1188.38 460.065C1189.78 474.051 1173.64 477.15 1166.17 476.968Z" fill="url(#paint4_linear)"/>
<path d="M1119.76 464.452C1119.03 481.032 1108.45 494.973 1101.72 506.192C1095.96 496.189 1087.3 484.623 1083.46 471.161C1077 448.472 1085.59 436.906 1098.87 435.838C1116.66 434.405 1120.18 454.966 1119.76 464.452Z" fill="url(#paint5_linear)"/>
<path d="M1143.54 521.163C1126.94 520.76 1112.8 510.457 1101.45 503.957C1111.33 497.996 1122.72 489.108 1136.11 485.004C1158.66 478.086 1170.4 486.45 1171.73 499.706C1173.51 517.46 1153.03 521.393 1143.54 521.163Z" fill="url(#paint6_linear)"/>
<path d="M1158.95 600.856C1116.07 666.302 1047.83 652.855 1012 652.195C998.417 601.863 1025.87 571.396 1041.29 562.454C1052.39 555.486 1077.63 539.008 1088.86 531.641L1084.47 572.134L1099.44 526.267L1132.48 506.158L1128.05 540.019L1143.06 500.785C1160.03 497.494 1195.52 473.036 1211.14 461.218C1217.14 486.124 1209.04 512.754 1204.23 522.956L1170.54 545.059L1199.68 536.916C1190.79 558.731 1174.55 584.616 1168.19 592.838L1123.55 589.302L1158.95 600.856Z" fill="url(#paint7_linear)"/>
<path d="M1195.58 493.534C1116.47 585.663 1053.03 626.119 993.9 649.184" stroke="url(#paint8_linear)" stroke-width="3.54967" stroke-linecap="round"/>
<path opacity="0.4" d="M171.391 676.89C437.353 624.909 946.724 660.692 1086.53 675.627C1174.28 692.027 1109.95 700.31 1066.81 702.402C971.741 712.111 1283.19 744.631 1484.64 767.307C1680.14 781.032 1604.1 791.907 1541.64 795.628C973.491 805.915 399.79 780.622 225.007 762.378C34.6656 737.751 105.46 691.034 171.391 676.89Z" fill="url(#paint9_linear)"/>
<g opacity="0.2">
<rect x="346.421" y="84" width="18.1579" height="69" rx="9.07895" fill="#567FEA"/>
<rect x="321" y="127.579" width="18.1579" height="69" rx="9.07895" transform="rotate(-90 321 127.579)" fill="#567FEA"/>
</g>
<rect x="388.579" y="64" width="6.8421" height="26" rx="3.42105" fill="#4CE1C6"/>
<rect x="379" y="80.4209" width="6.8421" height="26" rx="3.42105" transform="rotate(-90 379 80.4209)" fill="#4CE1C6"/>
<rect x="351.579" y="596" width="6.8421" height="26" rx="3.42105" fill="#4CE1C6"/>
<rect x="342" y="612.421" width="6.8421" height="26" rx="3.42105" transform="rotate(-90 342 612.421)" fill="#4CE1C6"/>
<g opacity="0.1">
<rect x="404.842" y="503" width="31.3158" height="119" rx="15.6579" fill="white"/>
<rect x="361" y="578.158" width="31.3158" height="119" rx="15.6579" transform="rotate(-90 361 578.158)" fill="white"/>
</g>
<path d="M145.315 566.166C117.283 561.494 124.245 548.188 131.23 542.119C150.25 527.08 159.056 539.79 159.056 550.707C159.056 561.164 169.247 560.669 176.233 559.639C198.688 556.326 201.425 561.929 200.623 568.227C198.974 591.312 211.845 595.252 218.487 594.335C239.923 589.389 245.283 639.682 245.283 665.447H218.487C183.309 639.338 181.258 622.41 182.416 613.917C183.835 603.515 172.407 599.947 164.896 598.801C148.681 596.328 150.689 589.19 152.529 584.029C156.605 572.598 150.926 567.101 145.315 566.166Z" fill="url(#paint10_linear)"/>
<path d="M171.423 486.466C147.238 466.954 153.341 457.171 161.758 455.797C196.455 451.331 202.341 466.656 198.906 476.504C194.234 495.467 210.539 497.85 223.983 498.834C248.5 500.628 246.427 525.515 242.191 537.996C233.396 558.059 241.962 570.403 247.344 574.067C273.234 591.695 266.352 641.399 260.054 664.416H229.136C174.996 591.862 188.027 572.349 201.31 571.662C216.208 569.678 203.257 555.86 195.814 550.363C164.484 530.576 172.407 517.461 178.637 512.918C188.806 503.3 178.065 491.276 171.423 486.466Z" fill="url(#paint11_linear)"/>
<path d="M288.289 538.785C316.062 523.255 303.691 511.867 294.034 508.115C268.301 499.463 263.83 516.189 267.96 527.693C271.916 538.713 260.989 542.047 253.239 543.604C228.322 548.609 227.557 555.549 230.785 561.883C241.257 585.586 229.184 594.607 221.838 596.154C197.377 599.052 210.758 654.078 220.506 681.23L248.743 671.091C275.935 630.269 271.692 611.654 267.258 603.142C261.828 592.718 272.52 584.634 280.002 580.585C296.153 571.843 291.338 565.081 287.446 560.339C278.825 549.834 282.73 541.893 288.289 538.785Z" fill="url(#paint12_linear)"/>
<path d="M270.704 659.95H194.783C190.936 701.449 203.257 723.274 209.899 729H259.024C270.841 719.931 271.734 679.188 270.704 659.95Z" fill="url(#paint13_linear)"/>
<path d="M176.874 464.9C179.202 468.15 181.385 471.427 183.401 474.882C185.896 479.159 187.495 483.834 189.661 488.261C194.283 497.707 199.623 506.756 204.146 516.239C209.7 527.884 214.832 540.163 218.594 552.501C223.08 567.218 226.178 576.691 227.029 592.007" stroke="#1C2073" stroke-width="0.687064" stroke-linecap="round" stroke-linejoin="round"/>
<path d="M286.804 514.369C285.379 521.494 283.211 528.199 280.105 534.79C274.64 546.387 269.217 558.01 263.444 569.468C256.385 583.475 249.008 597.354 242.335 611.55C234.774 627.639 228.187 643.333 225.655 661.057" stroke="#4564C2" stroke-width="0.687064" stroke-linecap="round" stroke-linejoin="round"/>
<path d="M141.49 547.005C156.23 556.325 166.719 570.159 176.988 583.953C191.258 603.121 178.935 583.953 192.332 605.749" stroke="#4461B7" stroke-width="0.687064" stroke-linecap="round" stroke-linejoin="round"/>
<path d="M190.271 491.696C187.473 489.365 184.265 488.028 181.282 485.99C176.558 482.761 171.674 479.756 166.911 476.581" stroke="#1C2073" stroke-width="0.687064" stroke-linecap="round" stroke-linejoin="round"/>
<path d="M190.958 482.077C192.041 477.206 193.426 472.641 194.05 467.649" stroke="#1C2073" stroke-width="0.687064" stroke-linecap="round" stroke-linejoin="round"/>
<path d="M210.54 537.729C203.214 533.594 195.941 529.392 188.553 525.362" stroke="#1C2073" stroke-width="0.687064" stroke-linecap="round" stroke-linejoin="round"/>
<path d="M218.441 536.355C219.733 528.799 223.807 521.421 226.685 514.369" stroke="#1C2073" stroke-width="0.687064" stroke-linecap="round" stroke-linejoin="round"/>
<path d="M217.754 591.664C211.195 587.639 206.292 581.895 200.234 577.235" stroke="#1C2073" stroke-width="0.687064" stroke-linecap="round" stroke-linejoin="round"/>
<path d="M250.389 583.763C249.196 575.769 248.707 567.603 246.954 559.715" stroke="#4564C2" stroke-width="0.687064" stroke-linecap="round" stroke-linejoin="round"/>
<path d="M256.573 587.198C262.704 582.441 270.26 578.98 277.185 575.518" stroke="#4564C2" stroke-width="0.687064" stroke-linecap="round" stroke-linejoin="round"/>
<path d="M229.09 629.796C226.719 623.319 225.489 616.483 222.563 610.214" stroke="#4564C2" stroke-width="0.687064" stroke-linecap="round" stroke-linejoin="round"/>
<path d="M235.617 635.292C238.767 633.134 241.708 630.754 245.065 628.899C250.641 625.817 256.486 623.262 262.069 620.177" stroke="#4564C2" stroke-width="0.687064" stroke-linecap="round" stroke-linejoin="round"/>
<path d="M151.452 558.383C145.433 557.054 140.036 556.34 133.932 557.696" stroke="#4461B7" stroke-width="0.687064" stroke-linecap="round" stroke-linejoin="round"/>
<path d="M157.292 557.654C155.041 553.758 154.418 549.222 153.17 544.943" stroke="#4461B7" stroke-width="0.687064" stroke-linecap="round" stroke-linejoin="round"/>
<path d="M178.935 592.485C171.591 589.711 164.734 591.258 157.292 593.172" stroke="#4461B7" stroke-width="0.687064" stroke-linecap="round" stroke-linejoin="round"/>
<path d="M186.427 587.885C184.747 581.375 184.877 573.882 185.739 567.273" stroke="#4461B7" stroke-width="0.687064" stroke-linecap="round" stroke-linejoin="round"/>
<path opacity="0.3" d="M742.555 51.6945C743.489 47.197 747.367 43.9142 751.957 43.7354L1119.41 29.4209C1125.91 29.1677 1130.92 35.087 1129.59 41.4536L996.456 680.239C995.514 684.757 991.604 688.043 986.992 688.194L620.505 700.144C614.034 700.355 609.072 694.455 610.388 688.116L742.555 51.6945Z" fill="url(#paint14_linear)"/>
<path opacity="0.3" d="M760.494 68.7584C761.428 64.2609 765.306 60.9782 769.896 60.7993L1137.35 46.4848C1143.85 46.2317 1148.86 52.151 1147.53 58.5176L1014.4 697.303C1013.45 701.82 1009.54 705.107 1004.93 705.258L638.444 717.208C631.974 717.419 627.011 711.519 628.327 705.18L760.494 68.7584Z" fill="url(#paint15_linear)"/>
<path d="M730.11 36.15C731.044 31.6525 734.922 28.3698 739.512 28.1909L1106.97 13.8764C1113.46 13.6233 1118.47 19.5426 1117.14 25.9092L984.011 664.695C983.07 669.212 979.16 672.499 974.548 672.649L608.06 684.599C601.59 684.81 596.627 678.91 597.943 672.571L730.11 36.15Z" fill="url(#paint16_linear)"/>
<g filter="url(#filter0_d)">
<path d="M676.849 88.8499C677.814 84.3615 681.712 81.107 686.3 80.9579L1051.39 69.0916C1057.85 68.8816 1062.81 74.7667 1061.51 81.0997L1043.25 169.917C1042.32 174.429 1038.43 177.723 1033.83 177.897L667.476 191.736C660.956 191.982 655.95 186.019 657.322 179.64L676.849 88.8499Z" fill="url(#paint17_linear)"/>
</g>
<g filter="url(#filter1_d)">
<path d="M726.395 235.179C727.332 230.662 731.236 227.372 735.846 227.215L1020.31 217.504C1026.79 217.283 1031.76 223.184 1030.45 229.529L1011.73 319.793C1010.8 324.31 1006.89 327.6 1002.28 327.757L717.813 337.468C711.338 337.689 706.365 331.788 707.68 325.444L726.395 235.179Z" fill="url(#paint18_linear)"/>
</g>
<path opacity="0.6" d="M700.173 108.06C700.915 104.439 704.042 101.799 707.736 101.672L757.225 99.9738C762.421 99.7956 766.404 104.543 765.325 109.629L753.488 165.452C752.725 169.046 749.613 171.659 745.941 171.787L696.84 173.504C691.664 173.685 687.683 168.975 688.723 163.902L700.173 108.06Z" stroke="url(#paint19_linear)" stroke-width="3"/>
<path d="M793.186 103.792C793.993 99.7219 797.502 96.7465 801.649 96.6161L912.675 93.1241C918.098 92.9536 922.357 97.7279 921.571 103.097C920.96 107.262 917.46 110.395 913.254 110.542L802.242 114.432C796.499 114.634 792.07 109.429 793.186 103.792Z" fill="url(#paint20_linear)"/>
<path d="M784.499 149.926C785.729 144.627 790.376 140.822 795.814 140.663L999.115 134.708C1006.89 134.481 1012.94 141.399 1011.68 149.073C1010.72 154.932 1005.73 159.281 999.792 159.432L796.469 164.606C788.638 164.805 782.728 157.557 784.499 149.926Z" fill="url(#paint21_linear)"/>
<path d="M696.238 378.462C696.997 374.607 700.316 371.785 704.244 371.657L866.327 366.366C871.789 366.187 875.975 371.173 874.854 376.522C874.057 380.326 870.763 383.092 866.878 383.219L704.795 388.527C699.37 388.704 695.19 383.788 696.238 378.462Z" fill="url(#paint22_linear)"/>
<path fill-rule="evenodd" clip-rule="evenodd" d="M850.495 234.07C833.098 234.389 820.597 243.773 816.805 251.124C812.746 243.917 805.108 235.972 793.439 236.186C778.633 236.457 764.008 248.238 759.966 263.841C758.781 268.414 758.891 271.625 759.783 276.444L785.422 275.975L792.355 265.897C793.3 263.923 796.501 263.865 797.517 265.802L804.665 283.6L809.87 276.587C810.815 274.613 815.086 274.535 816.103 276.473L818.466 283.347L832.305 263.559C833.25 261.585 836.451 261.527 837.468 263.464L842.623 273.321L868.861 272.02L869.025 271.705C870.487 268.908 871.485 266.999 872.441 262.824C875.637 248.87 865.301 233.799 850.495 234.07ZM839.939 280.599C838.846 280.619 837.837 280.02 837.329 279.051L834.022 272.73L820.591 291.975C820.019 292.995 819.132 293.597 818.039 293.617C816.945 293.637 815.937 293.038 815.428 292.069L812.12 285.643L807.443 292.216C806.116 294.053 803.297 294.248 802.28 292.31L794.513 274.524L789.383 281C788.91 281.987 787.924 282.622 786.831 282.643L762.85 283.082C768.759 292.013 779.109 300.425 792.072 310.961L793.405 312.044C797.219 315.146 801.277 318.446 805.539 322.007C806.092 322.467 806.77 322.689 807.443 322.677C808.117 322.664 808.786 322.418 809.321 321.938C813.793 318.544 817.491 315.799 821.983 312.504C824.246 310.973 827.004 309.238 830.06 307.316L830.06 307.315C841.287 300.253 856.546 290.654 866.164 279.299L839.939 280.599ZM912.473 322.842C910.871 322.863 909.478 321.73 909.174 320.146L907.939 278.128L904.881 278.167L895.658 300.627C895.348 302.162 894.01 303.272 892.448 303.292L892.446 303.292C890.882 303.311 889.517 302.233 889.171 300.706L888.517 278.91L866.095 279.195C866.797 277.971 867.143 277.085 867.765 275.49L867.765 275.49C868.07 274.708 868.442 273.755 868.955 272.509L891.65 272.221C893.214 272.201 894.58 273.28 894.927 274.808L894.891 284.109L899.451 274.746C899.76 273.211 901.097 272.101 902.66 272.081L911.708 271.966C913.315 271.946 914.705 273.082 915.008 274.663L915.862 295.907L932.758 239.821C932.947 238.165 934.331 236.906 935.993 236.875C937.658 236.845 939.085 238.052 939.335 239.699L937.997 270.296L949.669 270.148C951.501 270.124 953.541 271.587 953.564 273.423C953.587 275.258 951.592 277.308 949.76 277.331L935.819 277.508C934.163 277.529 931.871 275.877 931.622 274.237L932.539 264.761L915.728 319.897C915.542 321.528 914.195 322.778 912.558 322.841L912.53 322.841C912.511 322.842 912.492 322.842 912.473 322.842ZM973.784 276.017L964.466 276.136C962.604 276.159 961.077 274.74 961.054 272.966C961.032 271.193 962.523 269.735 964.385 269.712L973.702 269.593C975.564 269.57 977.092 270.989 977.114 272.763C977.137 274.537 975.646 275.994 973.784 276.017Z" fill="url(#paint23_linear)"/>
<path d="M689.543 415.848C686.202 416.217 684.942 419.208 684.525 420.83C672.467 479.264 649.927 588.708 648.402 595.703C646.877 602.697 653.265 605.72 656.866 605.733C751.88 602.071 941.184 595.246 947.905 595.27C954.627 595.294 954.933 591.295 955.428 588.797C967.04 530.191 990.08 422.637 991.547 415.424C993.013 408.212 986.741 406.369 984.079 406.398C890.569 409.064 691.944 415.857 689.543 415.848Z" fill="url(#paint24_linear)"/>
<path opacity="0.5" d="M698.221 428.88C694.88 429.249 693.62 432.239 693.203 433.862C681.144 492.295 658.604 601.74 657.079 608.734C655.554 615.729 661.943 618.752 665.544 618.764C760.557 615.103 949.861 608.277 956.583 608.301C963.304 608.325 963.611 604.326 964.106 601.828C975.718 543.223 998.758 435.669 1000.22 428.456C1001.69 421.243 995.418 419.4 992.756 419.429C899.246 422.096 700.621 428.888 698.221 428.88Z" fill="url(#paint25_linear)"/>
<path d="M782.236 440.68C777.048 437.462 773.07 440.648 771.729 442.643C749.289 472.563 703.003 533.999 697.38 540.379C691.758 546.759 692.311 551.167 697.332 553.878C746.738 580.555 781.728 583.179 806.728 583.269C849.724 584.422 898.795 564.597 907.811 560.129C914.323 556.902 913.993 552.32 912.77 549.861C912.524 549.366 912.243 548.888 912.031 548.378C897.414 513.252 884.139 477.108 867.229 442.983C863.754 435.971 859.239 439.955 856.234 441.444C816.665 460.803 788.722 444.703 782.236 440.68Z" fill="url(#paint26_linear)"/>
<path fill-rule="evenodd" clip-rule="evenodd" d="M781.516 475.866C784.178 475.934 786.394 473.758 786.463 471.006C786.533 468.255 784.431 465.97 781.769 465.902L771.483 465.641C768.82 465.574 766.605 467.75 766.535 470.501C766.466 473.253 768.568 475.538 771.23 475.605L781.516 475.866ZM867.201 537.861C870.13 537.935 872.561 535.765 872.631 533.014C872.701 530.262 870.383 527.971 867.454 527.897L856.14 527.61C853.211 527.536 850.78 529.706 850.71 532.458C850.64 535.209 852.958 537.5 855.887 537.574L867.201 537.861ZM845.037 553.252C842.374 553.184 840.272 550.899 840.342 548.148C840.412 545.396 842.627 543.22 845.289 543.288L855.575 543.549C858.238 543.616 860.34 545.902 860.27 548.653C860.2 551.404 857.985 553.58 855.322 553.513L845.037 553.252ZM866.595 494.162C863.296 486.321 837.713 482.716 823.395 484.601C821.48 484.854 818.835 486.558 819.746 488.378C819.882 488.65 820.091 488.866 820.301 489.084L820.302 489.084C820.381 489.167 820.461 489.249 820.538 489.335C822.566 491.623 830.188 503.211 810.57 532.793C810.276 533.236 810.011 533.728 809.808 534.219L809.283 535.487C805.333 545.034 804.505 547.035 803.601 553.695L802.877 559.03C802.598 561.125 804.068 563.05 806.163 563.329L806.17 563.33C808.261 563.606 810.181 562.138 810.46 560.043L811.18 554.722C811.845 549.829 815.087 540.621 816.801 537.081C817.307 536.036 818.333 535.471 819.434 535.105C838.907 528.643 853.625 516.853 859.371 508.016C861.323 505.014 863.17 502.175 864.467 501.155C867.278 498.947 867.41 496.095 866.595 494.162ZM760.646 488.391C775.813 480.264 809.087 479.012 818.41 492.904C823.337 500.25 816.817 516.15 810.924 527.053C810.537 527.769 810.154 528.476 809.776 529.174C804.616 538.694 800.312 546.638 796.669 557.468C796.589 557.704 796.528 557.946 796.466 558.188C796.403 558.434 796.34 558.681 796.259 558.92C795.685 560.612 793.979 561.718 792.139 561.475C790.284 561.23 788.917 559.696 788.82 557.894C788.794 557.42 788.92 556.955 789.065 556.503L791.692 548.279C792.077 547.074 792.293 545.823 791.046 546.036C789.391 546.318 786.483 547.121 783.264 548.009C779.402 549.075 775.093 550.264 771.963 550.827C765.823 551.93 758.865 553.179 751.724 555.509C748.577 556.535 743.878 555.555 739.386 545.039C731.601 526.814 739.359 499.796 760.646 488.391Z" fill="url(#paint27_linear)"/>
<g filter="url(#filter2_d)">
<circle cx="490" cy="86" r="59" fill="white"/>
</g>
<mask id="mask0" mask-type="alpha" maskUnits="userSpaceOnUse" x="457" y="53" width="65" height="66">
<rect x="457" y="53.1475" width="65" height="65" fill="#C4C4C4"/>
</mask>
<g mask="url(#mask0)">
<path d="M467 62.082C467 58.7683 469.686 56.082 473 56.082H477.833C479.758 56.082 481.318 57.6422 481.318 59.5668V59.5668C481.318 59.8876 481.578 60.1476 481.899 60.1476H497.101C497.422 60.1476 497.682 59.8876 497.682 59.5668V59.5668C497.682 57.6422 499.242 56.082 501.167 56.082H506C509.314 56.082 512 58.7683 512 62.082V107C512 110.314 509.314 113 506 113H473C469.686 113 467 110.314 467 107V62.082Z" fill="#567FEA"/>
<path d="M478 57.5C478 55.0147 480.015 53 482.5 53H496.5C498.985 53 501 55.0147 501 57.5V57.5C501 59.9853 498.985 62 496.5 62H482.5C480.015 62 478 59.9853 478 57.5V57.5Z" fill="#4CE1C6"/>
<path d="M475.913 91.6558L477.958 93.6886L482.049 89.623" stroke="white" stroke-width="2" stroke-linecap="round" stroke-linejoin="round"/>
<path d="M488.475 91.6558H500.748" stroke="white" stroke-width="2" stroke-linecap="round"/>
<path d="M475.913 99.7869L477.958 101.82L482.049 97.7542" stroke="white" stroke-width="2" stroke-linecap="round" stroke-linejoin="round"/>
<path d="M488.475 99.7869H500.748" stroke="white" stroke-width="2" stroke-linecap="round"/>
<path fill-rule="evenodd" clip-rule="evenodd" d="M488.974 72.8402C488.974 72.8396 488.973 72.8391 488.973 72.8385C487.375 71.2508 484.785 71.2508 483.187 72.8385C481.59 74.4258 481.59 76.999 483.186 78.5868L483.186 78.5871L488.262 83.6317C488.654 84.021 489.289 84.021 489.68 83.6317L494.627 78.7153C494.673 78.6738 494.718 78.6311 494.762 78.5872C496.36 76.9995 496.36 74.4253 494.762 72.8376C493.165 71.2499 490.575 71.2499 488.977 72.8376C488.976 72.8385 488.975 72.8393 488.974 72.8402Z" fill="white"/>
</g>
<circle cx="41" cy="601" r="41" fill="url(#paint28_linear)"/>
<path fill-rule="evenodd" clip-rule="evenodd" d="M30.0655 580.136C27.7691 580.136 25.9075 581.997 25.9075 584.294V615.422C25.9075 617.719 27.7691 619.58 30.0655 619.58H52.9347C55.2311 619.58 57.0927 617.719 57.0927 615.422V584.294C57.0927 581.997 55.2311 580.136 52.9347 580.136H49.5851C48.2513 580.136 47.1701 581.217 47.1701 582.551C47.1701 582.773 46.9899 582.953 46.7676 582.953H36.2325C36.0102 582.953 35.83 582.773 35.83 582.551C35.83 581.217 34.7488 580.136 33.4151 580.136H30.0655ZM41.1359 591.749L41.1349 591.748C40.0278 590.648 38.2328 590.648 37.1256 591.748C36.0188 592.848 36.0185 594.631 37.1247 595.731L37.1241 595.732L40.6419 599.228C40.9133 599.498 41.3535 599.498 41.6249 599.228L45.0544 595.82C45.0856 595.791 45.1164 595.762 45.1467 595.732C46.2538 594.632 46.2538 592.848 45.1467 591.748C44.0395 590.647 42.2445 590.647 41.1374 591.748L41.1359 591.749ZM36.8249 603.872C37.0964 603.602 37.0977 603.163 36.8279 602.891C36.5581 602.62 36.1194 602.619 35.8479 602.888L33.5014 605.22L32.5724 604.297C32.3009 604.027 31.8621 604.029 31.5923 604.3C31.3225 604.572 31.3239 605.01 31.5954 605.28L33.0129 606.689C33.2831 606.958 33.7196 606.958 33.9899 606.689L36.8249 603.872ZM40.7899 604.096C40.4072 604.096 40.0969 604.406 40.0969 604.789C40.0969 605.171 40.4072 605.482 40.7899 605.482H49.295C49.6777 605.482 49.988 605.171 49.988 604.789C49.988 604.406 49.6777 604.096 49.295 604.096H40.7899ZM36.8279 608.526C37.0977 608.798 37.0964 609.237 36.8249 609.506L33.9899 612.324C33.7196 612.592 33.2831 612.592 33.0129 612.324L31.5954 610.915C31.3239 610.645 31.3225 610.207 31.5923 609.935C31.8621 609.664 32.3009 609.662 32.5724 609.932L33.5014 610.855L35.8479 608.523C36.1194 608.254 36.5581 608.255 36.8279 608.526ZM40.7899 609.731C40.4072 609.731 40.0969 610.041 40.0969 610.424C40.0969 610.806 40.4072 611.117 40.7899 611.117H49.295C49.6777 611.117 49.988 610.806 49.988 610.424C49.988 610.041 49.6777 609.731 49.295 609.731H40.7899Z" fill="white"/>
<path d="M33.5305 581.119C33.5305 579.396 34.9267 578 36.649 578H46.3511C48.0734 578 49.4696 579.396 49.4696 581.119V581.119C49.4696 582.841 48.0734 584.237 46.3511 584.237H36.649C34.9267 584.237 33.5305 582.841 33.5305 581.119V581.119Z" fill="white"/>
<mask id="mask1" mask-type="alpha" maskUnits="userSpaceOnUse" x="18" y="578" width="47" height="46">
<rect x="18.9773" y="578.102" width="45.0453" height="45.0453" fill="#C4C4C4"/>
</mask>
<g mask="url(#mask1)">
</g>
<circle cx="1197" cy="169" r="41" fill="url(#paint29_linear)"/>
<path fill-rule="evenodd" clip-rule="evenodd" d="M1185.07 148.136C1182.77 148.136 1180.91 149.997 1180.91 152.294V183.422C1180.91 185.719 1182.77 187.58 1185.07 187.58H1207.93C1210.23 187.58 1212.09 185.719 1212.09 183.422V152.294C1212.09 149.997 1210.23 148.136 1207.93 148.136H1204.59C1203.25 148.136 1202.17 149.217 1202.17 150.551C1202.17 150.773 1201.99 150.953 1201.77 150.953H1191.23C1191.01 150.953 1190.83 150.773 1190.83 150.551C1190.83 149.217 1189.75 148.136 1188.42 148.136H1185.07ZM1196.14 159.749L1196.13 159.748C1195.03 158.648 1193.23 158.648 1192.13 159.748C1191.02 160.848 1191.02 162.631 1192.12 163.731L1192.12 163.732L1195.64 167.228C1195.91 167.498 1196.35 167.498 1196.62 167.228L1200.05 163.82C1200.09 163.791 1200.12 163.762 1200.15 163.732C1201.25 162.632 1201.25 160.848 1200.15 159.747C1199.04 158.647 1197.24 158.647 1196.14 159.747L1196.14 159.749ZM1191.82 171.871C1192.1 171.602 1192.1 171.163 1191.83 170.891C1191.56 170.62 1191.12 170.619 1190.85 170.888L1188.5 173.22L1187.57 172.297C1187.3 172.027 1186.86 172.029 1186.59 172.3C1186.32 172.572 1186.32 173.01 1186.6 173.28L1188.01 174.689C1188.28 174.957 1188.72 174.957 1188.99 174.689L1191.82 171.871ZM1195.79 172.096C1195.41 172.096 1195.1 172.406 1195.1 172.789C1195.1 173.171 1195.41 173.482 1195.79 173.482H1204.29C1204.68 173.482 1204.99 173.171 1204.99 172.789C1204.99 172.406 1204.68 172.096 1204.29 172.096H1195.79ZM1191.83 176.526C1192.1 176.798 1192.1 177.236 1191.82 177.506L1188.99 180.324C1188.72 180.592 1188.28 180.592 1188.01 180.324L1186.6 178.915C1186.32 178.645 1186.32 178.206 1186.59 177.935C1186.86 177.663 1187.3 177.662 1187.57 177.932L1188.5 178.855L1190.85 176.523C1191.12 176.253 1191.56 176.255 1191.83 176.526ZM1195.79 177.73C1195.41 177.73 1195.1 178.041 1195.1 178.423C1195.1 178.806 1195.41 179.116 1195.79 179.116H1204.29C1204.68 179.116 1204.99 178.806 1204.99 178.423C1204.99 178.041 1204.68 177.73 1204.29 177.73H1195.79Z" fill="white"/>
<path d="M1188.53 149.119C1188.53 147.396 1189.93 146 1191.65 146H1201.35C1203.07 146 1204.47 147.396 1204.47 149.119V149.119C1204.47 150.841 1203.07 152.237 1201.35 152.237H1191.65C1189.93 152.237 1188.53 150.841 1188.53 149.119V149.119Z" fill="white"/>
<mask id="mask2" mask-type="alpha" maskUnits="userSpaceOnUse" x="1173" y="146" width="47" height="46">
<rect x="1173.98" y="146.102" width="45.0453" height="45.0453" fill="#C4C4C4"/>
</mask>
<g mask="url(#mask2)">
</g>
<path d="M691.789 136.338L707.251 155.434L748.108 113.81" stroke="#5AD3C0" stroke-width="10" stroke-linecap="round"/>
<path d="M590.326 205.148C589.466 201.734 587.839 194.317 587.134 191.034C569.478 171.78 553.256 187.414 547.352 197.638C541.999 207.225 542.664 214.161 546.02 218.192L541.76 233.476C546.823 248.647 545.647 244.608 552.475 247.503C558.769 249.225 564.77 247.252 565.666 246.89C564.407 246.545 563.339 241.96 563.999 239.557C564.659 237.154 566.874 227.502 572.785 229.262C594.002 237.103 593.319 216.453 590.326 205.148Z" fill="#F3BB93"/>
<path fill-rule="evenodd" clip-rule="evenodd" d="M563.87 240.196C563.901 239.97 563.944 239.756 563.999 239.557C564.034 239.429 564.074 239.281 564.118 239.116C564.905 236.162 567.188 227.596 572.785 229.262C574.111 229.752 575.351 230.13 576.511 230.407C576.517 230.402 576.524 230.396 576.531 230.391C574.354 229.884 569.029 227.791 565.136 223.473C562.945 222.367 559.555 224.195 563.521 240.356C563.57 240.36 563.69 240.304 563.87 240.196Z" fill="url(#paint30_linear)"/>
<path d="M572.881 191.832C579.863 197.494 586.981 196.346 589.048 195.997C594.714 175.019 571.555 171.458 560.925 172.637C545.902 173.847 539.371 187.043 537.983 193.489C536.392 208.535 544.2 217.422 548.303 219.985L555.732 215.546C549.253 205.144 553.782 204.366 556.857 205.278C559.061 205.931 560.684 205.179 560.757 202.418C563.263 187.338 569.884 189.077 572.881 191.832Z" fill="url(#paint31_linear)"/>
<path d="M585.311 202.583C583.896 202.409 582.527 202.419 581.174 203.009C580.569 203.273 579.842 203.598 579.406 204.132" stroke="#3D323C" stroke-width="0.729761" stroke-linecap="round" stroke-linejoin="round"/>
<path d="M588.073 219.055C586.903 219.281 586.061 219.059 585.068 218.392C584.451 217.979 583.703 217.312 583.333 216.632" stroke="#3D323C" stroke-width="0.729761" stroke-linecap="round" stroke-linejoin="round"/>
<path d="M593.835 211.238C593.558 210.818 591.334 208.012 590.256 206.661L591.049 213.239C593.895 212.122 594.092 211.439 593.835 211.238Z" fill="#F3BB93"/>
<path d="M427.941 634.413L419.27 619.818L432.188 606.825L444.484 619.072L427.941 634.413Z" fill="#F3BB93"/>
<path d="M409.371 624.861C412.691 624.018 417.375 620.468 419.828 618.879C422.398 624.144 425.309 630.921 428.747 633.891C427.188 635.556 427.358 666.927 426.947 673.739C426.536 680.551 424.363 686.541 423.24 684.651C414.076 670.298 402.803 636.317 402.575 630.574C402.347 624.831 406.05 625.704 409.371 624.861Z" fill="url(#paint32_linear)"/>
<path d="M427.569 645.052L428.747 633.892C426.998 632.348 425.282 629.461 424.251 627.725C420.972 634.887 424.939 643.712 427.569 645.052Z" fill="white"/>
<path d="M564.629 505.895C563.252 499.763 553.879 456.23 549.364 435.23L518.406 490.437C513.281 498.691 508.331 512.492 500.621 529.156C492.022 534.382 444.1 586.777 424.186 604.441C425.942 607.729 428.643 611.336 442.761 633.839C459.078 614.35 538.312 546.877 551.59 537.832C564.867 528.787 566.35 513.559 564.629 505.895Z" fill="url(#paint33_linear)"/>
<path d="M532.883 681.743L514.022 679.166L512.482 657.81L532.016 655.335L532.883 681.743Z" fill="#F3BB93"/>
<path d="M511.01 691.968C512.745 688.29 513.177 681.388 513.633 677.97C520.025 679.415 527.958 681.641 533.033 680.62C533.301 683.267 560.194 705.864 565.702 711.184C571.211 716.504 574.716 722.856 572.273 722.523C553.256 720.578 515.933 706.344 510.864 702.389C505.795 698.434 509.276 695.646 511.01 691.968Z" fill="url(#paint34_linear)"/>
<path d="M541.684 689.803L533.033 680.62C530.423 681.116 526.692 680.607 524.448 680.3C528.137 688.524 538.598 691.26 541.684 689.803Z" fill="white"/>
<path d="M546.364 530.315L554.186 395.883L493.113 398.75C490.312 413 491.697 414.568 491.004 437.764C491.004 437.764 489.923 481.722 504.101 521.059C506.838 532.51 511.706 536.385 510.086 548.535C500.821 589.714 505.645 639.57 506.751 668.296L535.372 667.633L546.364 530.315Z" fill="url(#paint35_linear)"/>
<path d="M554.589 410.003C566.428 355.99 576.806 311.252 574.382 295.328L544.509 279.021L522.799 402.48C542.494 403.646 551.907 408.028 554.589 410.003Z" fill="url(#paint36_linear)"/>
<path d="M555.22 382.926C566.719 357.196 571.722 327.453 573.907 309.771L561.413 306.84L516.858 421.909L540.397 423.221C541.574 414.884 550.769 392.884 555.22 382.926Z" fill="url(#paint37_linear)"/>
<path d="M682.519 173.067C680.727 174.352 679.505 181.719 677.112 185.723C674.719 189.727 675.245 196.99 675.245 196.99C680.227 197.6 683.109 197.615 684.988 196.32C685.766 195.135 688.919 192.478 690.602 191.438C693.267 189.793 694.322 186.783 695.268 184.33C695.268 184.33 697.945 178.722 697.733 175.146C697.521 171.569 691.259 171.957 689.605 172.797C695.965 169.568 698.562 164.012 698.683 163.212C698.442 161.697 697.384 162.223 696.885 162.675C695.229 163.686 684.562 171.717 682.519 173.067Z" fill="#F3BB93"/>
<path d="M676.674 187.616C672.638 194.837 647.812 227.108 635.402 241.986C638.53 248.7 645.604 262.582 647.017 261.86C648.43 261.139 663.169 239.492 683.709 196.578C682.985 195.145 680.745 190.001 676.674 187.616Z" fill="#F3BB93"/>
<path d="M577.434 243.75C563.294 239.943 553.402 237.055 547.627 235.158C516.241 221.172 503.181 289.191 498.468 321.469C495.369 342.693 492.147 354.266 489.46 361.631C483.391 378.267 444.187 431.371 430.754 476.17C429.304 478.721 433.998 480.515 433.998 480.515C439.61 482.621 455.245 492.834 482.913 500.106C496.857 503.771 506.077 509.27 508.944 511.562C507.114 501.882 542.531 399.51 550.738 382.735C564.465 354.457 572.08 318.646 574.172 304.275C575.002 298.575 576.891 292.593 579.61 284.435C591.395 283.583 621.486 284.539 631.819 276.925C642.153 269.311 668.257 237.12 668.257 237.12C665.538 219.277 654.661 211.119 652.486 215.367L632.907 239.296C625.837 249.629 625.293 243.75 618.767 245.822C608.317 248.212 587.224 245.822 577.434 243.75Z" fill="url(#paint38_linear)"/>
<path opacity="0.7" d="M627.469 273.662C616.546 278.062 576.347 276.925 576.347 276.925C576.347 276.925 575.826 276.939 580.154 283.995C598.101 283.995 617.135 281.276 617.135 281.276C626.925 280.732 631.819 277.469 639.977 268.223L656.292 247.557C647.047 258.978 638.391 269.262 627.469 273.662Z" fill="url(#paint39_linear)"/>
<path opacity="0.7" d="M549.181 385.5C555.126 368.359 568.726 299.274 571 277L576.5 277L580 284C575.5 310.5 559.5 373 549.181 385.5Z" fill="url(#paint40_linear)"/>
<path d="M541.768 233.395L546.028 218.111C546.643 218.887 547.75 219.621 548.226 219.89L546.803 234.774C545.659 234.126 542.97 233.585 541.768 233.395Z" fill="url(#paint41_linear)"/>
<path opacity="0.7" d="M436.792 476.594C436.792 476.594 485.316 497.348 502.62 495.139C504.717 479.424 525.156 422.941 525.156 422.941C502.147 443.23 460.292 468.334 436.792 476.594Z" fill="url(#paint42_linear)"/>
<path d="M1026 802.5C1026 789.978 1025.34 748.833 1030 729.5C1025.67 729.5 1017 730.8 1009 728C1013.5 730.5 1017.5 785.5 1016 802.5C1014.63 818 984.346 819.921 1008 824C1022.5 826.5 1048 823.5 1041 818.5C1034 813.5 1026 812.5 1026 802.5Z" fill="url(#paint43_linear)"/>
<path opacity="0.7" d="M1015.5 770C1017.9 768 1028 748.5 1029 733.5C1026.83 732.333 1021 730.7 1011 731.5C1012.5 737 1014.5 759 1015.5 770Z" fill="url(#paint44_linear)"/>
<path d="M1121.17 610.407C1123.04 590.386 1099.59 588 1086.32 588C956.794 588 922.83 672.794 922 703.5C923.992 753.294 1009.8 718.733 1029 692C1054.5 656.5 1057.64 626.987 1083.83 625.345C1115.09 623.386 1120.61 616.478 1121.17 610.407Z" fill="url(#paint45_linear)"/>
<path d="M1075.51 442.993C1074.28 437.304 1064.55 433.778 1059.83 432.727C1051.52 423.136 1033.98 428.499 1026.43 429.667C1018.89 430.835 1019.79 444.859 1019.64 451.351C1019.48 457.842 1016.92 465.862 1009.82 466.928C1004.05 467.794 998.735 473.348 1000.1 482.303C1001.47 491.258 1003.17 492.715 997.671 499.275C992.172 505.835 996.835 512.464 1000.71 514.678L1038.78 528.854C1046.79 527.265 1069.29 526.284 1073.45 526.666C1078.65 527.142 1083.05 517.322 1080.82 508.287C1079.09 501.283 1070.94 500.623 1081.21 489.734C1089.49 480.945 1080.61 469.597 1077.82 466.028L1077.78 465.972C1075.04 462.468 1077.04 450.105 1075.51 442.993Z" fill="url(#paint46_linear)"/>
<path d="M1016.38 501.108C1021.73 499.666 1028.41 499.033 1031.59 497.888L1042.41 498.223C1044.91 500.479 1049.91 503.63 1058.84 508.476C1070.6 514.86 1075.67 519.556 1077.49 522.354C1077.08 543.813 1071.1 571.948 1069.77 586.254C1070.69 608.079 1067.94 624.011 1070.55 633.353C1067.64 637.733 1052.59 643.087 1043.57 643.208C1031.84 643.367 1021.09 640.2 1008.48 638.097C970.306 643.998 956.636 631.705 953.368 624.772C963.93 620.754 972.962 602.386 979.002 583.027C985.613 566.564 990.218 530.694 994.825 513.831C995.393 512.535 995.19 511.062 996.624 509.729C998.633 508.49 1003.68 505.16 1016.38 501.108Z" fill="url(#paint47_linear)"/>
<path d="M1027.56 501.14C1030.61 498.181 1031.01 493.516 1031.32 490.439C1033.88 490.894 1039.61 492.626 1045.76 493.717C1044.93 496.876 1044.95 498.928 1044.64 501.913C1044.22 502.324 1034.97 507.027 1027.56 501.14Z" fill="#F0B285"/>
<path opacity="0.9" d="M1045.34 493.617C1044.87 493.698 1035.67 491.022 1031.14 489.674L1031.18 491.736L1031.08 492.624C1032.1 494.862 1041.66 499.77 1044.76 501.736C1044.49 501.071 1045.49 495.081 1045.34 493.617Z" fill="url(#paint48_linear)"/>
<path d="M1031.46 492.687C1018.19 485.531 1022.31 464.492 1024.65 448.412C1027.31 443.222 1034.76 439.789 1047 445.223C1056 449.408 1061.52 457.136 1064.34 470.1C1068.74 468.111 1069.88 471.995 1068.48 475.704C1066.96 479.698 1064.07 481.823 1060.59 480.832C1052.09 493.65 1043.38 497.151 1031.46 492.687Z" fill="#F0B285"/>
<path opacity="0.4" d="M1057.38 469.887C1058.05 460.071 1053.06 457.548 1055.1 451.125L1056.13 450.691C1056.13 450.691 1060.46 457.687 1062.25 462.662C1063.26 465.492 1064.22 469.38 1064.33 470.1C1065.03 469.798 1066.57 469.178 1067.74 469.88C1068.84 470.606 1068.84 471.393 1068.97 471.931C1069.02 474.133 1068.67 475.098 1068.22 476.456C1066.82 479.292 1065.59 479.693 1064.89 480.392C1063.01 481.292 1062.26 481.16 1060.57 480.862C1053.24 491.284 1048.05 493.47 1044.51 493.855C1043.79 493.933 1041.79 493.991 1039.53 493.594C1041.13 493.26 1045.1 493.775 1049.56 486.73C1053.82 483.165 1056.97 475.911 1057.38 469.887Z" fill="url(#paint49_linear)"/>
<path opacity="0.7" d="M983.762 637.186C982.207 633.524 986.023 610.094 987.02 606.508C981.065 609.152 971.11 624.386 962.263 628.188C965.172 628.818 975.679 635.878 983.762 637.186Z" fill="url(#paint50_linear)"/>
<path d="M1029.21 451.93C1043.58 456.026 1053.19 454.799 1055.43 451.815C1055.21 458.828 1062.88 463.986 1066.63 465.056C1066.94 463.886 1065.54 460.712 1064.9 457.386C1064.42 454.853 1063.96 455.926 1063.99 450.901C1064.02 444.62 1058.96 443.111 1055.95 442.255C1039.38 421.43 1014.57 450.143 1025.76 449.377C1029.25 449.138 1030.73 449.084 1033.25 446.928C1032.33 448.58 1030.83 450.547 1029.21 451.93Z" fill="url(#paint51_linear)"/>
<path d="M1044.88 467.927C1047.27 466.803 1050.7 467.619 1052.43 469.704" stroke="#201947" stroke-linecap="round" stroke-linejoin="round"/>
<path d="M1033.77 464.423C1032.42 462.129 1028.31 460.761 1025.8 461.638" stroke="#201947" stroke-linecap="round" stroke-linejoin="round"/>
<path d="M1031.42 482.347C1033.15 484.889 1038.19 485.813 1040.48 484.417" stroke="#EA5F56" stroke-linecap="round" stroke-linejoin="round"/>
<path opacity="0.7" d="M1062.02 639.009C1059.65 635.006 1055.78 612.131 1056.38 607.821C1049.88 611.807 1039.49 634.642 1038.88 637.794C1042.35 638.074 1052.45 638.744 1062.02 639.009Z" fill="url(#paint52_linear)"/>
<path opacity="0.7" d="M1087.06 551.419C1081.36 573.04 1070.59 581.607 1063.66 581.971C1073.74 587.443 1080.39 582.247 1082.98 580.224L1083.02 580.191C1084.65 578.919 1086.11 578.283 1087.08 578.45C1086.55 577.693 1086.62 565.511 1086.75 563.551C1086.91 561.362 1086.92 558.705 1087.06 551.419Z" fill="url(#paint53_linear)"/>
<path d="M872.778 764.929C861.517 761.363 857.523 754.352 856.934 751.292C857.419 748.465 867.081 757.159 871.851 761.859C873.746 763.698 873.259 764.672 872.778 764.929Z" fill="url(#paint54_linear)"/>
<path d="M869.784 766.066C867.717 768.869 858.252 780.719 855.587 783.84C860.753 770.978 859.384 757.49 857.895 752.386C858.675 751.543 859.904 750.428 860.162 750.184C862.939 753.815 868.837 762.332 869.784 766.066Z" fill="url(#paint55_linear)"/>
<path d="M927.525 770.53C916.695 772.888 908.031 784.5 901.282 790.174C907.243 779.433 909.26 767.573 909.345 766.582L914.009 762.586L927.017 764.177C927.343 767.662 927.296 766.413 927.525 770.53Z" fill="url(#paint56_linear)"/>
<path d="M907.322 764.102C908.299 762.066 916.612 750.392 929.873 753.616C925.886 758.774 915.027 766.466 907.322 764.102Z" fill="url(#paint57_linear)"/>
<path d="M923.951 683.572C921.109 672.37 908.324 665.651 902.19 663.933L908.703 650.06L939.26 647.799L974.818 674.097L966.646 703.234C966.646 703.234 956.128 723.123 938.83 731.078C917.37 735.137 925.546 712.72 925.767 703.772C926.616 692.282 926.794 694.775 923.951 683.572Z" fill="url(#paint58_linear)"/>
<path fill-rule="evenodd" clip-rule="evenodd" d="M969.2 639.13C965.992 632.655 953.633 623.5 936.149 617.861C928.646 614.848 910.393 628.197 908.235 644.078C907.263 651.224 908.098 670.037 909.047 691.435C910.213 717.715 911.552 747.895 909.932 765.155C908.604 770.734 905.445 779.607 903.256 785.058C899.54 794.311 894.623 801.426 889.963 807.55C889.321 808.393 888.231 809.368 887.066 810.409C882.732 814.284 877.362 819.084 890.193 821.506C899.687 823.297 919.121 802.27 923.479 796.748C926.595 792.8 928.992 786.831 928.219 777.856L927.245 766.54C927.275 766.54 927.306 766.54 927.336 766.539C927.172 756.1 934.809 695.199 936.833 683.715C936.915 683.247 937 682.73 937.092 682.169C938.565 673.144 941.922 652.589 969.2 639.13Z" fill="#F0B285"/>
<path d="M929.964 753.624C919.965 761.717 909.891 764.674 907.322 764.102C906.136 777.048 905.127 780.6 901.85 786.469C898.453 792.005 894.509 800.83 888.39 807.328C878.515 816.465 880.914 817.689 882.769 819.365C898.018 828.294 912.2 810.239 918.611 803.038L918.773 802.856C927.045 793.567 930.668 789.497 928.297 771.821C928.234 766.018 928.952 762.611 929.964 753.624Z" fill="url(#paint59_linear)"/>
<path opacity="0.9" d="M908.689 673.53C910.357 676.995 930.13 631.276 947.805 641.169C941.268 649.947 918.916 679.314 909.2 692.181C909.23 689.957 908.801 680.283 908.689 673.53Z" fill="url(#paint60_linear)"/>
<path opacity="0.6" d="M910.858 743.712C914.033 740.962 923.889 724.351 932.775 711.989L933.607 707.573L910.828 729.726C910.629 733.931 910.482 740.43 910.858 743.712Z" fill="url(#paint61_linear)"/>
<path fill-rule="evenodd" clip-rule="evenodd" d="M954.174 640.082C952.837 640.33 951.869 640.51 951.365 640.588C948.255 641.067 937.339 644.234 921.946 670.259C912.859 685.623 874.235 738.226 860.534 749.492C860.563 749.524 860.592 749.555 860.62 749.587C857.369 753.342 844.192 764.87 838.419 767.947C834.461 770.057 831.584 770.619 828.915 771.141C826.603 771.592 824.446 772.014 821.875 773.384C817.167 775.893 804.121 788.69 815.292 796.628C829.689 804.136 836.865 802.775 845.099 794.72C850.103 789.826 855.421 784.529 859.537 779.278L871.974 763.196C875.148 760.392 879.564 756.807 884.811 752.546C903.353 737.491 932.282 714.002 953.491 686.772C956.235 685.817 963.364 686.849 972.327 688.147C990.162 690.73 1015.26 694.364 1027.56 685.498C1035.96 679.442 1044.22 656.424 1044.52 652.063C1038.37 653.056 1035.12 650.836 1030.53 647.705C1027.96 645.949 1024.97 643.908 1020.81 641.985C1016.72 640.343 1014.63 640.359 1012.14 640.378C1008.51 640.405 1004.05 640.439 991.388 635.353C977.811 635.693 961.076 638.8 954.174 640.082Z" fill="#F3BB93"/>
<path opacity="0.9" d="M947.806 675.149C958.806 643.072 939.07 645.928 938.066 646.084C951.975 640.044 959.456 645.359 961.459 648.771L958.748 679.543C956.684 682.534 943.194 699.405 939.478 703.502C935.85 703.163 945.244 682.621 947.806 675.149Z" fill="url(#paint62_linear)"/>
<path opacity="0.6" d="M956.138 682.525C958.665 679.515 964.027 676.75 964.992 676.299C967.326 679.472 964.862 684.24 965.478 687.393C964.561 686.746 955.49 685.898 953.491 686.772C954.67 685.009 955.259 684.128 956.138 682.525Z" fill="url(#paint63_linear)"/>
<path d="M938.83 731.078C956.85 726.202 962.025 715.911 996.33 707.051C1037.22 698.598 1047.1 659.512 1052.41 642.07C1042.79 642.94 1038.72 644.086 1022.89 640.872C1016.06 638.739 1015.15 637.712 1012.88 637.122C1001.02 634.036 998.061 632.491 993.131 631.425C978.047 628.162 973.137 627.308 963.235 628.921C957.103 624.802 949.434 620.828 942.17 617.911C930.547 613.243 919.398 619.841 914.37 625.406C900.263 641.015 904.408 650.012 902.122 663.906C912.097 654.497 916.227 674.071 931.447 656.12C939.577 646.529 944.3 642.277 950.753 649.061C958.97 659.068 950.759 677.549 959.66 682.542C970.66 689.637 956.348 698.711 951.805 710.022C948.84 717.407 944.575 723.622 938.83 731.078Z" fill="url(#paint64_linear)"/>
<path d="M982.359 705.57C993.624 701.616 1001.68 693.085 1012.6 692.892C1004.54 691.036 985.656 689.931 977.09 691.404C967.092 694.733 966.854 699.001 961.43 704.753C956.147 711.671 952.821 715.28 961.447 710.882C968.38 707.347 970.868 707.024 974.299 705.274L982.359 705.57Z" fill="url(#paint65_linear)"/>
<path d="M963.099 628.866C955.953 630.84 946.455 638.671 940.264 646.468C943.214 639.123 948.33 626.832 946.029 619.632C949.908 621.13 957.555 625.346 963.099 628.866Z" fill="url(#paint66_linear)"/>
<path d="M1052.41 642.07C1051.38 646.968 1046.73 660.128 1044.2 665.92C1042.5 669.782 1036.61 680.152 1030.69 687.277C1035.32 669.295 1033.64 658.872 1024.79 646.933C1020.82 641.58 1019.04 640.152 1013.75 637.314C1015.48 637.884 1015.37 638.362 1018 639.42C1020.03 640.234 1025.41 641.289 1027.33 641.78C1032.72 643.162 1037.6 642.341 1041.77 643.103C1045.3 642.925 1048.33 642.701 1052.41 642.07Z" fill="url(#paint67_linear)"/>
<path d="M873.133 765.139C861.673 760.026 857.528 753.775 856.889 751.288C847.99 761.748 842.526 764.267 837.679 767.839C826.222 772.313 817.803 771.039 811.774 782.035C803.887 796.877 816.487 801.482 828.935 802.622C833.508 802.037 840.477 802.675 849.586 790.958C850.1 789.998 855.158 784.941 857.423 782.136C861.908 777.024 868.519 766.868 873.133 765.139Z" fill="url(#paint68_linear)"/>
<path d="M873.414 765.397C861.953 760.284 857.809 754.032 857.169 751.546C848.27 762.006 842.806 764.524 837.96 768.097C826.502 772.57 818.083 771.297 812.055 782.293C804.168 797.135 816.768 801.739 829.216 802.88C833.788 802.294 840.758 802.933 849.866 791.215C850.38 790.256 855.438 785.199 857.704 782.394C862.189 777.281 868.8 767.126 873.414 765.397Z" fill="url(#paint69_linear)"/>
<path d="M983.912 563.682C976.427 585.088 972.496 591.688 970.669 598.619C969.903 601.157 966.586 610.296 964.45 622.652C959.541 624.173 957.187 625.008 956.164 625.408C955.176 614.271 956.438 607.351 958.586 593.495C960.173 583.254 967.452 553.53 969.841 552.853C972.858 551.998 981.343 562.171 983.912 563.682Z" fill="#F3BB93"/>
<path d="M959.057 645.662C956.068 639.259 955.519 629.485 956.209 624.91L964.495 622.154C964.874 626.252 965.26 628.264 966.186 629.277C968.391 631.687 970.614 634.949 972.204 639.126C973.926 643.651 976.942 645.292 976.557 646.052C975.497 648.141 970.196 641.422 969.656 641.935L969.564 642.338L970.094 643.73L970.843 646.02L971.948 648.603L972.881 650.087L973.969 651.819C978.443 657.29 973.436 655.088 970.856 651.533C972.411 654.006 972.985 657.528 964.265 650.241C962.425 648.704 962.509 647.721 961.475 646.213C966.393 656.236 959.723 647.088 959.057 645.662Z" fill="url(#paint70_linear)"/>
<path d="M970.445 651.015C969.411 650.284 967.527 648.018 967.071 645.371C967.72 646.861 969.589 650.311 970.445 651.015Z" fill="#BC8660"/>
<path d="M969.243 653.495C967.9 652.571 965.299 649.417 964.285 646.431C965.138 648.303 968.129 652.606 969.243 653.495Z" fill="#BC8660"/>
<path opacity="0.6" d="M968.119 555.205C965.69 560.558 965.713 565.027 963.809 569.371C970.194 575.121 971.593 582.447 976.701 582.101C977.95 580.562 980.601 572.416 981.825 570.018C976.932 565.166 972.857 561.93 968.119 555.205Z" fill="url(#paint71_linear)"/>
<path opacity="0.8" d="M1068.67 470.935C1066.48 469.481 1064.71 473.205 1062.66 475.271C1063.23 474.572 1064.48 471.276 1064.28 470.122C1064.29 470.084 1064.38 470.087 1064.49 470.045C1066.16 469.312 1067.91 469.21 1068.67 470.935Z" fill="url(#paint72_linear)"/>
<path d="M1034.96 466.686C1035.98 469.324 1034.78 471.769 1034.09 474.32C1033.97 474.778 1033.95 475.066 1034.11 475.515C1034.27 475.923 1034.42 476.413 1034.62 476.787" stroke="#383737" stroke-width="0.840744" stroke-linecap="round" stroke-linejoin="round"/>
<path d="M960.922 557.056C963.928 559.759 960.043 559.112 964.297 563.178C971.858 570.936 972.459 569.527 982.609 570.904C984.118 564.69 986.872 552.103 987.091 550.918C991.09 529.192 994.45 514.437 996.517 510.109C990.558 513.076 984.127 517.508 976.103 533.844C968.398 546.695 965.905 551.989 960.922 557.056Z" fill="url(#paint73_linear)"/>
<path d="M1006.77 642.878C1020.81 638.267 1026.98 636.881 1053.16 626.462C1060.44 623.565 1081.28 580.704 1080.73 577.487C1080.03 573.427 1063.58 569.943 1060.33 567.755C1052.03 587.079 1046.18 606.978 1044.14 608.726C1038.1 611.371 1024.79 621.107 1005.67 632.505L1006.77 642.878Z" fill="#F3BB93"/>
<path d="M982.812 654.055C992.015 652.812 1002.63 646.46 1007.2 642.447L1005.97 632.235C1001.17 634.727 997.644 634.839 995.866 634.534C991.635 633.808 986.45 633.667 980.702 634.876C974.475 636.186 970.518 634.017 969.951 634.982C968.394 637.638 979.588 638.727 979.406 639.689L979.026 640.077L977.11 640.479L974.046 641.278L970.404 641.89L968.1 641.913L965.412 641.939C956.186 640.879 962.177 644.851 967.94 645.178C964.101 645.216 959.799 647.082 974.051 651.549C977.057 652.491 978.084 651.701 980.485 651.774C965.91 653.454 980.763 654.331 982.812 654.055Z" fill="#F3BB93"/>
<path d="M968.805 645.265C970.347 645.89 974.192 646.364 977.442 644.988C975.333 645.329 970.192 645.712 968.805 645.265Z" fill="#BC8660"/>
<path d="M966.916 648.356C968.892 649.184 974.226 649.82 978.248 648.82C975.573 649.207 968.69 648.955 966.916 648.356Z" fill="#BC8660"/>
<path opacity="0.6" d="M1079.18 582.84C1077.19 587.654 1073.95 594.874 1070.86 600.592C1060.42 596.287 1056.29 590.479 1053.8 584.228C1054.92 581.874 1055.26 579.658 1056.48 576.942C1065 579.989 1068.52 581.041 1079.18 582.84Z" fill="url(#paint74_linear)"/>
<path d="M1050.23 582.9C1052.04 579.551 1055.03 567.64 1059.21 556.107C1066.6 535.697 1072.84 524.627 1077.39 522.124C1082.7 526.447 1088.64 536.21 1087.21 551.869C1087.17 574.235 1086.21 573.003 1087.62 587.842C1083.63 588.5 1081.27 592.209 1075.5 593.342C1064.8 595.838 1059.94 587.359 1050.23 582.9Z" fill="url(#paint75_linear)"/>
<path d="M1121.15 608.106C1121.17 607.194 1121.17 606.3 1121.17 605.428C1121.23 606.366 1121.22 607.258 1121.15 608.106C1120.48 647.977 1104.9 724.613 1046.48 732.402C1016.13 736.983 947.5 737.045 940.5 727.522C933.5 718 935.764 709.928 944.5 704C965.5 692 980 657 999.5 647C1021.9 632.339 1053.5 627 1077.5 625.5C1088.02 624.065 1119.59 626.747 1121.15 608.106Z" fill="url(#paint76_linear)"/>
<defs>
<filter id="filter0_d" x="644.63" y="58.8506" width="449.55" height="163.128" filterUnits="userSpaceOnUse" color-interpolation-filters="sRGB">
<feFlood flood-opacity="0" result="BackgroundImageFix"/>
<feColorMatrix in="SourceAlpha" type="matrix" values="0 0 0 0 0 0 0 0 0 0 0 0 0 0 0 0 0 0 127 0"/>
<feOffset dx="10" dy="10"/>
<feGaussianBlur stdDeviation="10"/>
<feColorMatrix type="matrix" values="0 0 0 0 0.683206 0 0 0 0 0.750583 0 0 0 0 0.925764 0 0 0 0.5 0"/>
<feBlend mode="normal" in2="BackgroundImageFix" result="effect1_dropShadow"/>
<feBlend mode="normal" in="SourceGraphic" in2="effect1_dropShadow" result="shape"/>
</filter>
<filter id="filter1_d" x="696.505" y="207.409" width="365.117" height="160.155" filterUnits="userSpaceOnUse" color-interpolation-filters="sRGB">
<feFlood flood-opacity="0" result="BackgroundImageFix"/>
<feColorMatrix in="SourceAlpha" type="matrix" values="0 0 0 0 0 0 0 0 0 0 0 0 0 0 0 0 0 0 127 0"/>
<feOffset dx="10" dy="10"/>
<feGaussianBlur stdDeviation="10"/>
<feColorMatrix type="matrix" values="0 0 0 0 0.683206 0 0 0 0 0.750583 0 0 0 0 0.925764 0 0 0 0.5 0"/>
<feBlend mode="normal" in2="BackgroundImageFix" result="effect1_dropShadow"/>
<feBlend mode="normal" in="SourceGraphic" in2="effect1_dropShadow" result="shape"/>
</filter>
<filter id="filter2_d" x="397.477" y="0.181819" width="198.455" height="198.455" filterUnits="userSpaceOnUse" color-interpolation-filters="sRGB">
<feFlood flood-opacity="0" result="BackgroundImageFix"/>
<feColorMatrix in="SourceAlpha" type="matrix" values="0 0 0 0 0 0 0 0 0 0 0 0 0 0 0 0 0 0 127 0"/>
<feOffset dx="6.70455" dy="13.4091"/>
<feGaussianBlur stdDeviation="20.1136"/>
<feColorMatrix type="matrix" values="0 0 0 0 0.761999 0 0 0 0 0.812206 0 0 0 0 0.943231 0 0 0 1 0"/>
<feBlend mode="normal" in2="BackgroundImageFix" result="effect1_dropShadow"/>
<feBlend mode="normal" in="SourceGraphic" in2="effect1_dropShadow" result="shape"/>
</filter>
<linearGradient id="paint0_linear" x1="1158.63" y1="320.849" x2="1019.39" y2="522.471" gradientUnits="userSpaceOnUse">
<stop stop-color="#CFC7FF"/>
<stop offset="1" stop-color="#8F8DF4"/>
</linearGradient>
<linearGradient id="paint1_linear" x1="1175.47" y1="301.096" x2="1018.83" y2="578.323" gradientUnits="userSpaceOnUse">
<stop stop-color="white"/>
<stop offset="1" stop-color="white" stop-opacity="0"/>
</linearGradient>
<linearGradient id="paint2_linear" x1="1222.76" y1="379.237" x2="1162.33" y2="383.074" gradientUnits="userSpaceOnUse">
<stop stop-color="#8773FE"/>
<stop offset="1" stop-color="#4846A0"/>
</linearGradient>
<linearGradient id="paint3_linear" x1="1140.55" y1="408.969" x2="1108.99" y2="440.435" gradientUnits="userSpaceOnUse">
<stop stop-color="#8773FE"/>
<stop offset="1" stop-color="#4846A0"/>
</linearGradient>
<linearGradient id="paint4_linear" x1="1189.35" y1="469.612" x2="1157.26" y2="438.685" gradientUnits="userSpaceOnUse">
<stop stop-color="#8773FE"/>
<stop offset="1" stop-color="#4846A0"/>
</linearGradient>
<linearGradient id="paint5_linear" x1="1111.01" y1="434.844" x2="1070.95" y2="474.787" gradientUnits="userSpaceOnUse">
<stop stop-color="#8773FE"/>
<stop offset="1" stop-color="#4846A0"/>
</linearGradient>
<linearGradient id="paint6_linear" x1="1172.96" y1="511.825" x2="1132.23" y2="472.566" gradientUnits="userSpaceOnUse">
<stop stop-color="#8773FE"/>
<stop offset="1" stop-color="#4846A0"/>
</linearGradient>
<linearGradient id="paint7_linear" x1="1175.11" y1="502.409" x2="998.947" y2="554.082" gradientUnits="userSpaceOnUse">
<stop stop-color="#4C3BB0"/>
<stop offset="1" stop-color="#2A157D"/>
</linearGradient>
<linearGradient id="paint8_linear" x1="1195.2" y1="493.783" x2="1060.85" y2="622.009" gradientUnits="userSpaceOnUse">
<stop stop-color="white" stop-opacity="0.65"/>
<stop offset="1" stop-color="white" stop-opacity="0"/>
</linearGradient>
<linearGradient id="paint9_linear" x1="224.24" y1="750.511" x2="1721.52" y2="765.567" gradientUnits="userSpaceOnUse">
<stop offset="0.00389023" stop-color="#DAEBF5"/>
<stop offset="1" stop-color="#E3F1F9" stop-opacity="0.37"/>
</linearGradient>
<linearGradient id="paint10_linear" x1="151.175" y1="562.17" x2="238.023" y2="646.353" gradientUnits="userSpaceOnUse">
<stop stop-color="#4C3BB0"/>
<stop offset="1" stop-color="#2A157D"/>
</linearGradient>
<linearGradient id="paint11_linear" x1="161.116" y1="463.565" x2="306.957" y2="540.002" gradientUnits="userSpaceOnUse">
<stop stop-color="#8773FE"/>
<stop offset="1" stop-color="#4846A0"/>
</linearGradient>
<linearGradient id="paint12_linear" x1="292.294" y1="506.884" x2="214.367" y2="653.563" gradientUnits="userSpaceOnUse">
<stop stop-color="#CFC7FF"/>
<stop offset="1" stop-color="#8F8DF4"/>
</linearGradient>
<linearGradient id="paint13_linear" x1="240" y1="652" x2="252.012" y2="747.611" gradientUnits="userSpaceOnUse">
<stop stop-color="#EEF1FF"/>
<stop offset="1" stop-color="#A5B0E9"/>
</linearGradient>
<linearGradient id="paint14_linear" x1="681.88" y1="465.096" x2="1112.21" y2="464.104" gradientUnits="userSpaceOnUse">
<stop stop-color="white"/>
<stop offset="1" stop-color="white" stop-opacity="0.6"/>
</linearGradient>
<linearGradient id="paint15_linear" x1="699.819" y1="482.16" x2="1130.15" y2="481.168" gradientUnits="userSpaceOnUse">
<stop stop-color="white"/>
<stop offset="1" stop-color="white" stop-opacity="0.6"/>
</linearGradient>
<linearGradient id="paint16_linear" x1="778.468" y1="93.6623" x2="985.289" y2="705.403" gradientUnits="userSpaceOnUse">
<stop stop-color="white"/>
<stop offset="1" stop-color="white" stop-opacity="0.67"/>
</linearGradient>
<linearGradient id="paint17_linear" x1="671.489" y1="93.5759" x2="680.401" y2="313.439" gradientUnits="userSpaceOnUse">
<stop offset="0.0127845" stop-color="white"/>
<stop offset="1" stop-color="#EAF0FF"/>
</linearGradient>
<linearGradient id="paint18_linear" x1="733.581" y1="240.19" x2="739.824" y2="460.134" gradientUnits="userSpaceOnUse">
<stop offset="0.0127845" stop-color="white"/>
<stop offset="1" stop-color="#EAF0FF"/>
</linearGradient>
<linearGradient id="paint19_linear" x1="685.047" y1="102.88" x2="742.739" y2="195.429" gradientUnits="userSpaceOnUse">
<stop stop-color="#93B1FF"/>
<stop offset="1" stop-color="#567FEA"/>
</linearGradient>
<linearGradient id="paint20_linear" x1="797.66" y1="97.4496" x2="916.079" y2="137.205" gradientUnits="userSpaceOnUse">
<stop stop-color="#8AABFF"/>
<stop offset="1" stop-color="#5D85ED"/>
</linearGradient>
<linearGradient id="paint21_linear" x1="787.64" y1="141.453" x2="911.962" y2="171.564" gradientUnits="userSpaceOnUse">
<stop stop-color="#8AABFF"/>
<stop offset="1" stop-color="#5D85ED"/>
</linearGradient>
<linearGradient id="paint22_linear" x1="699.187" y1="376.053" x2="866.218" y2="424.911" gradientUnits="userSpaceOnUse">
<stop stop-color="#EA8787"/>
<stop offset="1" stop-color="#F29F9F"/>
</linearGradient>
<linearGradient id="paint23_linear" x1="756.997" y1="235.806" x2="979.445" y2="321.746" gradientUnits="userSpaceOnUse">
<stop stop-color="#E88080"/>
<stop offset="1" stop-color="#FFC6C6"/>
</linearGradient>
<linearGradient id="paint24_linear" x1="680.137" y1="389.259" x2="924.202" y2="654.603" gradientUnits="userSpaceOnUse">
<stop stop-color="#E4ECFF"/>
<stop offset="0.0001" stop-color="#E7EEFF"/>
<stop offset="1" stop-color="#BACDFF"/>
</linearGradient>
<linearGradient id="paint25_linear" x1="688.907" y1="396.124" x2="934.903" y2="662.292" gradientUnits="userSpaceOnUse">
<stop stop-color="#E4ECFF"/>
<stop offset="0.0001" stop-color="#E7EEFF"/>
<stop offset="1" stop-color="#BACDFF"/>
</linearGradient>
<linearGradient id="paint26_linear" x1="774.754" y1="438.769" x2="913.282" y2="571.264" gradientUnits="userSpaceOnUse">
<stop stop-color="white"/>
<stop offset="0.0001" stop-color="#E7EEFF"/>
<stop offset="1" stop-color="#EBF1FF"/>
</linearGradient>
<linearGradient id="paint27_linear" x1="745.131" y1="490.938" x2="822.445" y2="505.336" gradientUnits="userSpaceOnUse">
<stop stop-color="#8AABFF"/>
<stop offset="1" stop-color="#5D85ED"/>
</linearGradient>
<linearGradient id="paint28_linear" x1="33.7647" y1="656.471" x2="130.436" y2="583.581" gradientUnits="userSpaceOnUse">
<stop stop-color="#5DD3E3"/>
<stop offset="1" stop-color="#77D99F" stop-opacity="0.41"/>
</linearGradient>
<linearGradient id="paint29_linear" x1="1160.99" y1="131.354" x2="1230.42" y2="199.677" gradientUnits="userSpaceOnUse">
<stop stop-color="#8773FE"/>
<stop offset="1" stop-color="#4846A0"/>
</linearGradient>
<linearGradient id="paint30_linear" x1="572.4" y1="225.416" x2="562.645" y2="228.308" gradientUnits="userSpaceOnUse">
<stop stop-color="#E0A780"/>
<stop offset="1" stop-color="#E0A780" stop-opacity="0"/>
</linearGradient>
<linearGradient id="paint31_linear" x1="544.34" y1="211" x2="599.498" y2="210.569" gradientUnits="userSpaceOnUse">
<stop stop-color="#343333"/>
<stop offset="1" stop-color="#503050"/>
</linearGradient>
<linearGradient id="paint32_linear" x1="410.633" y1="619.655" x2="385.517" y2="662.989" gradientUnits="userSpaceOnUse">
<stop stop-color="#273292"/>
<stop offset="1" stop-color="#0D196D"/>
</linearGradient>
<linearGradient id="paint33_linear" x1="578.412" y1="412.337" x2="417.093" y2="644.235" gradientUnits="userSpaceOnUse">
<stop stop-color="#2E3492"/>
<stop offset="1" stop-color="#0D196D"/>
</linearGradient>
<linearGradient id="paint34_linear" x1="507.501" y1="687.026" x2="529.242" y2="740.3" gradientUnits="userSpaceOnUse">
<stop stop-color="#3B47B0"/>
<stop offset="1" stop-color="#15227D"/>
</linearGradient>
<linearGradient id="paint35_linear" x1="555.255" y1="413.175" x2="632.941" y2="454.918" gradientUnits="userSpaceOnUse">
<stop stop-color="#3B47B0"/>
<stop offset="1" stop-color="#15227D"/>
</linearGradient>
<linearGradient id="paint36_linear" x1="548.801" y1="283.83" x2="579.557" y2="393.813" gradientUnits="userSpaceOnUse">
<stop offset="0.0127845" stop-color="#F6F9FF"/>
<stop offset="1" stop-color="#E9EFFF"/>
</linearGradient>
<linearGradient id="paint37_linear" x1="571.938" y1="317.706" x2="605.173" y2="359.346" gradientUnits="userSpaceOnUse">
<stop stop-color="#6D79C4"/>
<stop offset="1" stop-color="#D7DDFB" stop-opacity="0"/>
</linearGradient>
<linearGradient id="paint38_linear" x1="476.289" y1="277.828" x2="556.651" y2="464.529" gradientUnits="userSpaceOnUse">
<stop offset="0.0127845" stop-color="white"/>
<stop offset="1" stop-color="#EAF0FF"/>
</linearGradient>
<linearGradient id="paint39_linear" x1="667.742" y1="258.091" x2="589.406" y2="337.553" gradientUnits="userSpaceOnUse">
<stop stop-color="#C4CCE2" stop-opacity="0.52"/>
<stop offset="0.954354" stop-color="#C8D0E7" stop-opacity="0"/>
</linearGradient>
<linearGradient id="paint40_linear" x1="564.674" y1="353.527" x2="551.34" y2="353.968" gradientUnits="userSpaceOnUse">
<stop stop-color="#C4CCE2" stop-opacity="0.52"/>
<stop offset="0.954354" stop-color="#C8D0E7" stop-opacity="0"/>
</linearGradient>
<linearGradient id="paint41_linear" x1="546.134" y1="214.758" x2="549.066" y2="230.19" gradientUnits="userSpaceOnUse">
<stop stop-color="#BC8660"/>
<stop offset="1" stop-color="#F3BB93"/>
</linearGradient>
<linearGradient id="paint42_linear" x1="498" y1="464.948" x2="455.017" y2="492.574" gradientUnits="userSpaceOnUse">
<stop stop-color="#C4CCE2" stop-opacity="0.52"/>
<stop offset="0.954354" stop-color="#C8D0E7" stop-opacity="0"/>
</linearGradient>
<linearGradient id="paint43_linear" x1="980.5" y1="930" x2="1024" y2="731.5" gradientUnits="userSpaceOnUse">
<stop stop-color="white"/>
<stop offset="1" stop-color="#DEDEDE"/>
</linearGradient>
<linearGradient id="paint44_linear" x1="1023.5" y1="744.5" x2="1011" y2="775" gradientUnits="userSpaceOnUse">
<stop stop-color="#A5A7AD" stop-opacity="0.52"/>
<stop offset="0.954354" stop-color="#E3E8F6" stop-opacity="0"/>
</linearGradient>
<linearGradient id="paint45_linear" x1="1121.59" y1="516.886" x2="949.628" y2="619.813" gradientUnits="userSpaceOnUse">
<stop stop-color="#897AE2"/>
<stop offset="1" stop-color="#403F9C"/>
</linearGradient>
<linearGradient id="paint46_linear" x1="1007.01" y1="511.768" x2="1035.58" y2="431.843" gradientUnits="userSpaceOnUse">
<stop stop-color="#47423F"/>
<stop offset="0.965747" stop-color="#4F4944"/>
</linearGradient>
<linearGradient id="paint47_linear" x1="985.793" y1="518.911" x2="1069.05" y2="626.893" gradientUnits="userSpaceOnUse">
<stop offset="0.0127845" stop-color="white"/>
<stop offset="1" stop-color="#EAF0FF"/>
</linearGradient>
<linearGradient id="paint48_linear" x1="1034.1" y1="490.402" x2="1034.86" y2="500.968" gradientUnits="userSpaceOnUse">
<stop stop-color="#BC8660"/>
<stop offset="1" stop-color="#BC8660" stop-opacity="0"/>
</linearGradient>
<linearGradient id="paint49_linear" x1="1053.13" y1="449.934" x2="1045.68" y2="492.18" gradientUnits="userSpaceOnUse">
<stop stop-color="#BC8660"/>
<stop offset="1" stop-color="#BC8660" stop-opacity="0"/>
</linearGradient>
<linearGradient id="paint50_linear" x1="977.216" y1="608.352" x2="988.435" y2="612.819" gradientUnits="userSpaceOnUse">
<stop stop-color="#C4CCE2" stop-opacity="0.52"/>
<stop offset="0.954354" stop-color="#E3E8F6" stop-opacity="0"/>
</linearGradient>
<linearGradient id="paint51_linear" x1="1029.24" y1="451.086" x2="1036.69" y2="432.94" gradientUnits="userSpaceOnUse">
<stop stop-color="#47423F"/>
<stop offset="0.965747" stop-color="#4F4944"/>
</linearGradient>
<linearGradient id="paint52_linear" x1="1052.56" y1="614.036" x2="1066.26" y2="617.477" gradientUnits="userSpaceOnUse">
<stop stop-color="#C4CCE2" stop-opacity="0.52"/>
<stop offset="0.954354" stop-color="#E3E8F6" stop-opacity="0"/>
</linearGradient>
<linearGradient id="paint53_linear" x1="1091.23" y1="542.606" x2="1104.07" y2="579.379" gradientUnits="userSpaceOnUse">
<stop stop-color="#D43B65"/>
<stop offset="0.836333" stop-color="#FFA1BB" stop-opacity="0"/>
</linearGradient>
<linearGradient id="paint54_linear" x1="870.851" y1="756.101" x2="859.397" y2="759.562" gradientUnits="userSpaceOnUse">
<stop stop-color="white"/>
<stop offset="1" stop-color="#C1D2FF"/>
</linearGradient>
<linearGradient id="paint55_linear" x1="862.834" y1="751.083" x2="851.312" y2="779.772" gradientUnits="userSpaceOnUse">
<stop stop-color="#BC8660"/>
<stop offset="1" stop-color="#BC8660" stop-opacity="0"/>
</linearGradient>
<linearGradient id="paint56_linear" x1="936.778" y1="758.036" x2="905.484" y2="776.333" gradientUnits="userSpaceOnUse">
<stop stop-color="#BC8660"/>
<stop offset="0.918598" stop-color="#BC8660" stop-opacity="0"/>
</linearGradient>
<linearGradient id="paint57_linear" x1="934.49" y1="751.468" x2="910.58" y2="763.025" gradientUnits="userSpaceOnUse">
<stop stop-color="#BBCEFF"/>
<stop offset="1" stop-color="#BACDFF"/>
</linearGradient>
<linearGradient id="paint58_linear" x1="904.052" y1="715.546" x2="959.883" y2="682.481" gradientUnits="userSpaceOnUse">
<stop offset="0.208342" stop-color="#283290"/>
<stop offset="1" stop-color="#091149"/>
</linearGradient>
<linearGradient id="paint59_linear" x1="913.942" y1="750.754" x2="900.864" y2="823.751" gradientUnits="userSpaceOnUse">
<stop stop-color="#474FA4"/>
<stop offset="1" stop-color="#0E1677"/>
</linearGradient>
<linearGradient id="paint60_linear" x1="931.684" y1="636.331" x2="910.463" y2="689.17" gradientUnits="userSpaceOnUse">
<stop stop-color="#BC8660"/>
<stop offset="1" stop-color="#BC8660" stop-opacity="0"/>
</linearGradient>
<linearGradient id="paint61_linear" x1="925.079" y1="703.923" x2="910.197" y2="740.979" gradientUnits="userSpaceOnUse">
<stop stop-color="#BC8660"/>
<stop offset="1" stop-color="#BC8660" stop-opacity="0"/>
</linearGradient>
<linearGradient id="paint62_linear" x1="949.705" y1="643.305" x2="932.983" y2="684.943" gradientUnits="userSpaceOnUse">
<stop stop-color="#BC8660"/>
<stop offset="1" stop-color="#BC8660" stop-opacity="0"/>
</linearGradient>
<linearGradient id="paint63_linear" x1="958.246" y1="676.105" x2="947.684" y2="695.814" gradientUnits="userSpaceOnUse">
<stop stop-color="#BC8660"/>
<stop offset="1" stop-color="#BC8660" stop-opacity="0"/>
</linearGradient>
<linearGradient id="paint64_linear" x1="940.726" y1="630.622" x2="977.983" y2="746.315" gradientUnits="userSpaceOnUse">
<stop stop-color="#3B47B0"/>
<stop offset="1" stop-color="#15227D"/>
</linearGradient>
<linearGradient id="paint65_linear" x1="996.155" y1="693.026" x2="969.818" y2="709.271" gradientUnits="userSpaceOnUse">
<stop stop-color="#192378"/>
<stop offset="1" stop-color="#222E8D" stop-opacity="0.12"/>
</linearGradient>
<linearGradient id="paint66_linear" x1="957.125" y1="629.825" x2="944.854" y2="633.568" gradientUnits="userSpaceOnUse">
<stop stop-color="#192378"/>
<stop offset="1" stop-color="#222E8D" stop-opacity="0.12"/>
</linearGradient>
<linearGradient id="paint67_linear" x1="1033.46" y1="647.492" x2="1011.67" y2="666.257" gradientUnits="userSpaceOnUse">
<stop stop-color="#192378"/>
<stop offset="1" stop-color="#222E8D" stop-opacity="0.12"/>
</linearGradient>
<linearGradient id="paint68_linear" x1="870.723" y1="757.163" x2="785.951" y2="782.776" gradientUnits="userSpaceOnUse">
<stop stop-color="#B9C2FF"/>
<stop offset="1" stop-color="#7B88D9"/>
</linearGradient>
<linearGradient id="paint69_linear" x1="874.299" y1="768.326" x2="808.462" y2="788.217" gradientUnits="userSpaceOnUse">
<stop stop-color="#474FA4"/>
<stop offset="1" stop-color="#0E1677"/>
</linearGradient>
<linearGradient id="paint70_linear" x1="975.152" y1="659.282" x2="962.222" y2="636.005" gradientUnits="userSpaceOnUse">
<stop stop-color="#C0875F"/>
<stop offset="1" stop-color="#F3BB93"/>
</linearGradient>
<linearGradient id="paint71_linear" x1="978.517" y1="567.149" x2="967.917" y2="575.59" gradientUnits="userSpaceOnUse">
<stop stop-color="#BC8660"/>
<stop offset="1" stop-color="#BC8660" stop-opacity="0"/>
</linearGradient>
<linearGradient id="paint72_linear" x1="1064.96" y1="469.189" x2="1063.97" y2="474.762" gradientUnits="userSpaceOnUse">
<stop stop-color="#BC8660"/>
<stop offset="1" stop-color="#BC8660" stop-opacity="0"/>
</linearGradient>
<linearGradient id="paint73_linear" x1="978.181" y1="568.81" x2="979.845" y2="509.435" gradientUnits="userSpaceOnUse">
<stop stop-color="#BA9DF7"/>
<stop offset="1" stop-color="#E7C7FF"/>
</linearGradient>
<linearGradient id="paint74_linear" x1="1060.6" y1="578.607" x2="1056.61" y2="595.961" gradientUnits="userSpaceOnUse">
<stop stop-color="#BC8660"/>
<stop offset="1" stop-color="#BC8660" stop-opacity="0"/>
</linearGradient>
<linearGradient id="paint75_linear" x1="1056.26" y1="587.292" x2="1086.7" y2="527.324" gradientUnits="userSpaceOnUse">
<stop stop-color="#BA9DF7"/>
<stop offset="1" stop-color="#E7C7FF"/>
</linearGradient>
<linearGradient id="paint76_linear" x1="1002.59" y1="656.886" x2="1075.32" y2="796.169" gradientUnits="userSpaceOnUse">
<stop stop-color="#D1CAFF"/>
<stop offset="1" stop-color="#ECB3B3"/>
</linearGradient>
</defs>
</svg>
